STARTFONT 2.3
FONT -FontForge-Butcherman-Book-R-Normal--18-180-72-72-P-97-ISO10646-1
SIZE 18 72 72  2
FONTBOUNDINGBOX 28 35 -2 -12
COMMENT "Generated by fontforge, http://fontforge.sourceforge.net"
COMMENT "Copyright (c) 2011, Typomondo, with Reserved Font Name  "Butcherman"."
STARTPROPERTIES 41
FOUNDRY "FontForge"
FAMILY_NAME "Butcherman"
WEIGHT_NAME "Book"
SLANT "R"
SETWIDTH_NAME "Normal"
ADD_STYLE_NAME ""
PIXEL_SIZE 18
POINT_SIZE 180
RESOLUTION_X 72
RESOLUTION_Y 72
SPACING "P"
AVERAGE_WIDTH 97
CHARSET_REGISTRY "ISO10646"
CHARSET_ENCODING "1"
FONTNAME_REGISTRY ""
CHARSET_COLLECTIONS "ISO8859-2 ISO8859-9 ISO8859-4 ISO10646-1"
BITS_PER_PIXEL 2
FONT_NAME "Butcherman-Regular"
FACE_NAME "Butcherman Regular"
COPYRIGHT "Copyright (c) 2011, Typomondo, with Reserved Font Name  "Butcherman"."
FONT_VERSION "001.004"
FONT_ASCENT 14
FONT_DESCENT 4
UNDERLINE_POSITION -2
UNDERLINE_THICKNESS 1
X_HEIGHT 13
CAP_HEIGHT 12
DEFAULT_CHAR 3
RAW_ASCENT 799
RAW_DESCENT 200
NORM_SPACE 3
RELATIVE_WEIGHT 40
RELATIVE_SETWIDTH 50
SUPERSCRIPT_X 0
SUPERSCRIPT_Y 6
SUPERSCRIPT_SIZE 10
SUBSCRIPT_X 0
SUBSCRIPT_Y 1
SUBSCRIPT_SIZE 10
AVG_LOWERCASE_WIDTH 104
AVG_UPPERCASE_WIDTH 99
ENDPROPERTIES
CHARS 331
STARTCHAR NULL.dup1
ENCODING 0
SWIDTH 161 0
DWIDTH 3 0
BBX 1 1 0 0
BITMAP
00
ENDCHAR
STARTCHAR CR
ENCODING 13
SWIDTH 161 0
DWIDTH 3 0
BBX 1 1 0 0
BITMAP
00
ENDCHAR
STARTCHAR space
ENCODING 32
SWIDTH 161 0
DWIDTH 3 0
BBX 1 1 0 0
BITMAP
00
ENDCHAR
STARTCHAR exclam
ENCODING 33
SWIDTH 350 0
DWIDTH 6 0
BBX 6 21 0 1
BITMAP
6FD0
7FE0
3FC0
2FC0
3FC0
3FC0
2F80
1F80
1F80
0F40
0F40
0F40
0F40
0A00
0000
0540
7FD0
3FD0
2FE0
2FE0
2FD0
ENDCHAR
STARTCHAR quotedbl
ENCODING 34
SWIDTH 541 0
DWIDTH 10 0
BBX 8 8 1 6
BITMAP
5414
FDBE
FD7E
BC3D
BC3D
7C2D
382C
1000
ENDCHAR
STARTCHAR numbersign
ENCODING 35
SWIDTH 583 0
DWIDTH 11 0
BBX 10 16 0 -2
BITMAP
00A0A0
00D0D0
01C1D0
06D6D0
1FFFF0
1FFFE0
1BEFE0
0B0B00
0A0E00
0D0D00
BFBF40
BFFF00
696900
343400
707000
106000
ENDCHAR
STARTCHAR dollar
ENCODING 36
SWIDTH 534 0
DWIDTH 10 0
BBX 9 23 0 -5
BITMAP
005000
009000
009000
00D000
00A000
06FD00
1FFF80
2FFFC0
7FFFC0
7FFF80
7FBF80
7F5A80
3FF800
1FFE00
01BF00
2A6F00
2FBE00
0FFD00
05A400
009000
00D000
00D000
009000
ENDCHAR
STARTCHAR percent
ENCODING 37
SWIDTH 828 0
DWIDTH 15 0
BBX 15 16 0 -2
BITMAP
00007400
2E40B000
7FC0E000
7FD0D000
7BD1D000
76D2C290
76C38BF0
3B874BF0
0A0B0BF0
000E0BF4
001D0EB4
001C0BE0
00280180
00340000
00300000
00100000
ENDCHAR
STARTCHAR ampersand
ENCODING 38
SWIDTH 522 0
DWIDTH 9 0
BBX 9 10 0 2
BITMAP
015000
02F000
02F000
16F540
7FFF80
7FFF80
2BFA40
02F000
02F000
01A000
ENDCHAR
STARTCHAR quotesingle
ENCODING 39
SWIDTH 300 0
DWIDTH 5 0
BBX 4 8 1 6
BITMAP
54
FD
FD
BD
BC
7C
7C
10
ENDCHAR
STARTCHAR parenleft
ENCODING 40
SWIDTH 372 0
DWIDTH 7 0
BBX 7 17 0 -2
BITMAP
00B4
03F4
0BF0
1FF0
2FF0
3FE0
3F40
7F00
7F00
7F00
7E00
3F00
3F40
1F80
0FE0
07E0
01E0
ENDCHAR
STARTCHAR parenright
ENCODING 41
SWIDTH 338 0
DWIDTH 6 0
BBX 6 18 0 -3
BITMAP
6800
7F00
7FC0
7FC0
7FD0
3FD0
1FD0
07C0
07C0
07C0
07C0
0780
0B80
0F40
1F00
7D00
B800
1000
ENDCHAR
STARTCHAR asterisk
ENCODING 42
SWIDTH 513 0
DWIDTH 9 0
BBX 9 10 0 4
BITMAP
051800
0F2C00
0BB800
07F400
7BFF80
7FFF80
03F400
03F800
077C00
061800
ENDCHAR
STARTCHAR plus
ENCODING 43
SWIDTH 458 0
DWIDTH 8 0
BBX 8 8 0 3
BITMAP
0140
03D0
07D0
7FFD
7FFD
2BE9
03D0
03D0
ENDCHAR
STARTCHAR comma
ENCODING 44
SWIDTH 361 0
DWIDTH 7 0
BBX 5 9 1 -3
BITMAP
FF40
FF80
FF80
FF80
FF80
0B40
0740
0B40
0600
ENDCHAR
STARTCHAR hyphen
ENCODING 45
SWIDTH 478 0
DWIDTH 9 0
BBX 7 4 1 5
BITMAP
AAA4
FFF4
FFF4
6AA0
ENDCHAR
STARTCHAR period
ENCODING 46
SWIDTH 374 0
DWIDTH 7 0
BBX 5 6 1 1
BITMAP
0500
FF80
BF80
BF80
BF80
BF80
ENDCHAR
STARTCHAR slash
ENCODING 47
SWIDTH 291 0
DWIDTH 5 0
BBX 5 16 0 -2
BITMAP
01C0
02C0
0380
0340
0740
0B00
0E00
1D00
2C00
3800
3400
3000
7000
A000
D000
4000
ENDCHAR
STARTCHAR zero
ENCODING 48
SWIDTH 528 0
DWIDTH 10 0
BBX 8 15 1 -1
BITMAP
0140
2FF0
BFF8
FFFD
FFFD
FFFE
FEFE
F8BE
F8BE
F8BD
B8BC
BCF8
7EF8
2FF0
06D0
ENDCHAR
STARTCHAR one
ENCODING 49
SWIDTH 366 0
DWIDTH 7 0
BBX 6 14 0 0
BITMAP
0040
1BE0
BFE0
AFE0
0FE0
0FE0
0FD0
0BD0
0BD0
0BD0
07C0
07C0
07C0
06C0
ENDCHAR
STARTCHAR two
ENCODING 50
SWIDTH 575 0
DWIDTH 10 0
BBX 9 16 1 -2
BITMAP
054000
2FF400
BFFD00
FFFE00
FFFF00
FFFF00
FEFE00
FCBE00
55FD00
01FC00
02F400
0BF540
AFFFC0
FFFF80
FE9640
100100
ENDCHAR
STARTCHAR three
ENCODING 51
SWIDTH 517 0
DWIDTH 9 0
BBX 9 15 0 -1
BITMAP
014000
1FF800
3FFD00
7FFF00
7FFF40
3FFF40
3FBF40
3E3F40
007F00
01FF00
006F40
055F40
0BEF00
07FE00
02A800
ENDCHAR
STARTCHAR four
ENCODING 52
SWIDTH 466 0
DWIDTH 8 0
BBX 8 18 0 -4
BITMAP
1555
2FF8
1FE0
1FD0
1FD0
2FC0
2F80
2F80
2FB9
2F7C
3F7C
3FBD
7FFE
7FFE
117E
0034
0034
0024
ENDCHAR
STARTCHAR five
ENCODING 53
SWIDTH 583 0
DWIDTH 11 0
BBX 9 15 1 -1
BITMAP
555000
FFFFC0
FFFFC0
FFFF80
FFFF80
FFFF40
FFFF40
FC0500
BDA400
BFF800
15BC00
157D00
2F7C00
0FF400
0AA000
ENDCHAR
STARTCHAR six
ENCODING 54
SWIDTH 582 0
DWIDTH 10 0
BBX 10 15 0 -2
BITMAP
0BFE00
3FFF80
7FFFE0
7FFFE0
7FFFE0
3FBFD0
3F5FC0
2F0BC0
1FA940
1FEFC0
0F8BC0
0FDBC0
0BFFC0
03FF80
004100
ENDCHAR
STARTCHAR seven
ENCODING 55
SWIDTH 624 0
DWIDTH 11 0
BBX 11 16 0 -2
BITMAP
005554
BFFFFC
7FFFF8
7FFFF4
3FFFF0
3FFFE0
3FFFD0
140BD0
000FC0
001F40
002F00
003D00
007C00
00B800
00F400
01A000
ENDCHAR
STARTCHAR eight
ENCODING 56
SWIDTH 459 0
DWIDTH 8 0
BBX 8 15 0 -1
BITMAP
0550
2FFC
7FFE
7FFE
3FFD
3FFD
3EBC
2E7C
1FB8
0FF4
1EF4
1D74
0EB4
0FF4
0690
ENDCHAR
STARTCHAR nine
ENCODING 57
SWIDTH 584 0
DWIDTH 11 0
BBX 10 16 0 -2
BITMAP
001400
07FE00
1FFFD0
2FFFD0
3FFFE0
7FFFE0
7FAFE0
3F8FE0
2FFFE0
0FFFD0
015FC0
1B8F80
1FEF40
0FFE00
056500
001000
ENDCHAR
STARTCHAR colon
ENCODING 58
SWIDTH 386 0
DWIDTH 7 0
BBX 5 15 1 1
BITMAP
0500
FF80
BF80
BF80
BFC0
BFC0
5000
0000
0000
1500
FF80
FF80
BFC0
BF80
BF80
ENDCHAR
STARTCHAR semicolon
ENCODING 59
SWIDTH 375 0
DWIDTH 7 0
BBX 6 19 0 -3
BITMAP
0140
7FE0
3FE0
2FE0
2FE0
2FE0
1000
0000
0000
0000
3FE0
3FE0
3FE0
3FE0
3FE0
01E0
01D0
02D0
0180
ENDCHAR
STARTCHAR less
ENCODING 60
SWIDTH 459 0
DWIDTH 8 0
BBX 8 10 0 1
BITMAP
07FD
07F8
0FF0
2FD0
7F80
3FC0
1FD0
0BF4
02FD
0069
ENDCHAR
STARTCHAR equal
ENCODING 61
SWIDTH 485 0
DWIDTH 9 0
BBX 7 6 1 5
BITMAP
BFF4
FFF4
1510
5554
FFF4
6AA4
ENDCHAR
STARTCHAR greater
ENCODING 62
SWIDTH 432 0
DWIDTH 8 0
BBX 7 10 0 1
BITMAP
7FC0
2FD0
0BF0
07F8
01FC
03FC
07F4
1FD0
7F80
2900
ENDCHAR
STARTCHAR question
ENCODING 63
SWIDTH 577 0
DWIDTH 10 0
BBX 8 16 1 -2
BITMAP
1FE0
7FFD
FFFE
FFFF
FFFF
BDBF
54BE
00FD
01F8
02F0
02D0
0000
0690
0BD0
07E0
0790
ENDCHAR
STARTCHAR at
ENCODING 64
SWIDTH 930 0
DWIDTH 17 0
BBX 16 20 0 -4
BITMAP
00055000
002FFD00
00FFAF40
03D007D0
0B1FF8F4
0D3FFD7C
2C7FFE3D
387FFD2E
347FBD2F
743E3C2F
74293C1F
382FFC1F
382D3D0F
3C2E7F5E
2D2FFFFD
1E1AA1E4
0B400000
07D00000
01FFFC00
001BE800
ENDCHAR
STARTCHAR A
ENCODING 65
SWIDTH 494 0
DWIDTH 9 0
BBX 8 16 0 -3
BITMAP
6FFE
1FFD
0FFC
0FFC
0FF8
0FF8
0FF8
0F78
0F78
0FB8
1FF8
1FF4
0F74
0E74
0520
0010
ENDCHAR
STARTCHAR B
ENCODING 66
SWIDTH 517 0
DWIDTH 9 0
BBX 9 15 0 -1
BITMAP
015400
7FFF40
2FFF80
1FFF80
0FFF80
0FFF40
0F9F40
0F8F00
0FEE00
0FFD00
0BAE00
0B9E00
0B9E00
0BFD00
049800
ENDCHAR
STARTCHAR C
ENCODING 67
SWIDTH 504 0
DWIDTH 9 0
BBX 9 16 0 -2
BITMAP
015000
0BFD00
2FFF40
7FFF80
7FFF80
7FFF80
7FBF80
7F1F40
3F1540
3F0000
2F1500
2F2E00
0FBE00
0FFC00
026400
015000
ENDCHAR
STARTCHAR D
ENCODING 68
SWIDTH 522 0
DWIDTH 9 0
BBX 8 15 1 -2
BITMAP
AFF8
FFFE
BFFF
7FFF
7FFF
7FBF
3E2E
3E2D
3E2D
2E2C
2F7C
1FFC
2AF4
15D0
1180
ENDCHAR
STARTCHAR E
ENCODING 69
SWIDTH 570 0
DWIDTH 10 0
BBX 10 15 0 -1
BITMAP
015000
7FFFD0
2FFFC0
1FFFC0
1FFF80
1FFF40
1FEB00
0F8000
0FFC00
0FFC00
0B9800
0B9400
0BFD00
05FC00
049400
ENDCHAR
STARTCHAR F
ENCODING 70
SWIDTH 559 0
DWIDTH 10 0
BBX 9 14 0 -1
BITMAP
7FFF80
1FFF80
0FFF80
0BFF40
0BFF40
0BFF40
07D100
07FE00
07FE00
07E500
07D000
07D000
07D000
059000
ENDCHAR
STARTCHAR G
ENCODING 71
SWIDTH 499 0
DWIDTH 9 0
BBX 9 15 0 -2
BITMAP
0BF800
3FFF00
7FFF40
7FFF80
7FFF80
3FBF40
3E2F40
3E1A40
2E6A00
2E7F40
1F1F00
1FBF00
0FFE00
06A800
010000
ENDCHAR
STARTCHAR H
ENCODING 72
SWIDTH 726 0
DWIDTH 13 0
BBX 13 18 0 -4
BITMAP
00100000
6BE2FF40
2FD1FF00
1FD1FD00
1FD2FC00
0FD2FC00
0FD2F800
0BD2F400
0BFFF000
07FFF000
07E7F000
03D3E000
03D3E000
03D7D000
02429000
00000000
00040000
00040000
ENDCHAR
STARTCHAR I
ENCODING 73
SWIDTH 401 0
DWIDTH 7 0
BBX 7 15 0 -1
BITMAP
1550
7FF4
2FF0
0FE0
0FE0
0FE0
0FE0
0FD0
0FD0
0BD0
0BD0
07D0
07C0
06C0
0140
ENDCHAR
STARTCHAR J
ENCODING 74
SWIDTH 455 0
DWIDTH 8 0
BBX 9 14 -1 -1
BITMAP
00FF40
00BF00
007E00
007D00
00BD00
00BD00
00BC00
00BC00
14B800
7CB800
3CF800
3FF400
1EF000
004000
ENDCHAR
STARTCHAR K
ENCODING 75
SWIDTH 580 0
DWIDTH 10 0
BBX 10 15 0 -1
BITMAP
040000
7FCBE0
2FCF80
0FDE00
0BEE00
0BFD00
0BFD00
07FD00
07FD00
03FD00
03FD00
03DE00
03CF00
02CB00
014500
ENDCHAR
STARTCHAR L
ENCODING 76
SWIDTH 416 0
DWIDTH 8 0
BBX 8 15 0 -1
BITMAP
5510
7FE0
2FC0
2FC0
2FC0
2FC0
1F80
0FC0
0FC0
0FC0
0FC0
0BD5
0BFF
07FE
0199
ENDCHAR
STARTCHAR M
ENCODING 77
SWIDTH 740 0
DWIDTH 13 0
BBX 13 15 0 -1
BITMAP
01525000
7FE2FF40
2FF3FE00
1FFBFD00
1FFFFD00
0FFFFC00
0FFFFC00
0FFFFC00
0BFFFC00
07EEBC00
07DEBC00
03DEB800
03DDB800
0298A800
01000000
ENDCHAR
STARTCHAR N
ENCODING 78
SWIDTH 610 0
DWIDTH 11 0
BBX 11 17 0 -3
BITMAP
004400
7FCBE4
2FDBE0
1FE7D0
1FFBC0
1FFFC0
0FFFC0
0FFF80
0FFF80
0BFF80
07BF40
07AF40
079F40
078F40
078A00
014500
014000
ENDCHAR
STARTCHAR O
ENCODING 79
SWIDTH 504 0
DWIDTH 9 0
BBX 9 16 0 -2
BITMAP
004000
0BF900
2FFF40
7FFF40
7FFF80
7FFF40
7FBF80
3E2F80
3E2F80
2E2F40
2E2F00
1F3E00
1FBE00
0BFC00
023400
001000
ENDCHAR
STARTCHAR P
ENCODING 80
SWIDTH 545 0
DWIDTH 10 0
BBX 10 15 0 -1
BITMAP
005400
7FFF80
1FFFC0
0FFFD0
0FFFC0
0FFFC0
0BEBC0
0BD7C0
07D780
07FF80
03FF00
03D000
03D000
02D000
015000
ENDCHAR
STARTCHAR Q
ENCODING 81
SWIDTH 520 0
DWIDTH 9 0
BBX 9 15 0 -2
BITMAP
06FC00
2FFF40
3FFF80
7FFFC0
BFFFC0
7F9FC0
7F4F80
3F4F80
2F4F80
2F8F80
1FDF40
0BFF00
02FF80
00AB80
000200
ENDCHAR
STARTCHAR R
ENCODING 82
SWIDTH 599 0
DWIDTH 11 0
BBX 11 15 0 -1
BITMAP
005000
6FFF80
2FFFF0
0FFFF4
0BFFF4
0BFFF4
0BE7F4
07D2F0
07E7F0
03FFE0
02FFC0
02E7C0
02E7D0
02E7D0
019290
ENDCHAR
STARTCHAR S
ENCODING 83
SWIDTH 504 0
DWIDTH 9 0
BBX 9 15 0 -1
BITMAP
001000
07FD00
2FFF40
3FFF80
7FFF80
BFFF80
BFBF40
7F1A40
3FE400
1FFD00
01BF00
2A2F00
2FBE00
1FFC00
065400
ENDCHAR
STARTCHAR T
ENCODING 84
SWIDTH 622 0
DWIDTH 11 0
BBX 10 16 1 -2
BITMAP
014000
BFFF90
BFFFC0
7FFF80
7FFF80
3FFF80
3FFF80
12F400
01F400
02F400
02F400
01F000
01F000
01F400
01F000
015000
ENDCHAR
STARTCHAR U
ENCODING 85
SWIDTH 637 0
DWIDTH 11 0
BBX 11 15 0 -1
BITMAP
054000
7FC7E4
2FC7F4
1FC7F0
1FC7E0
1FC7E0
0FCBD0
0FCBC0
0FCBC0
0FCBC0
0BCB80
0BDF80
07FF40
02DA00
010400
ENDCHAR
STARTCHAR V
ENCODING 86
SWIDTH 570 0
DWIDTH 10 0
BBX 10 16 0 -2
BITMAP
050550
7F4FE0
2F4FD0
1F5F80
0F5F40
0FAF40
0FAF00
0FBE00
0BBE00
0BBD00
0BFC00
07FC00
03F800
03F400
02F000
001000
ENDCHAR
STARTCHAR W
ENCODING 87
SWIDTH 777 0
DWIDTH 14 0
BBX 14 14 0 0
BITMAP
00060400
1BCB1F90
7FCF6F80
0FDF7F00
07EFFD00
07FFFC00
03FFF800
01FFF400
00FFF400
00FFF000
00BAF000
007AE000
003AD000
0026C000
ENDCHAR
STARTCHAR X
ENCODING 88
SWIDTH 587 0
DWIDTH 11 0
BBX 11 14 0 -1
BITMAP
6FCFA4
1FDFD0
07FF40
03FE00
02FD00
01FD00
01FC00
00FC00
00F800
00FC00
01FC00
02ED00
02DE00
024600
ENDCHAR
STARTCHAR Y
ENCODING 89
SWIDTH 688 0
DWIDTH 12 0
BBX 12 15 0 -1
BITMAP
014040
7FD1F9
0BF2FE
02FBF4
00BFE0
007FC0
003FC0
002FC0
001F80
000F80
000F80
000B80
000B80
000B40
000500
ENDCHAR
STARTCHAR Z
ENCODING 90
SWIDTH 695 0
DWIDTH 13 0
BBX 12 15 0 -1
BITMAP
015500
6FFFF9
3FFFFE
2FFFFD
0FFFF8
0BFFF4
0BAFE0
052F80
007E00
00BC00
00B400
01F900
02FF40
03FF00
000500
ENDCHAR
STARTCHAR bracketleft
ENCODING 91
SWIDTH 410 0
DWIDTH 7 0
BBX 6 17 1 -1
BITMAP
5540
BFE0
BFE0
BFE0
BD00
FC00
BC00
FC00
FC00
FC00
FC00
FC00
FC00
BC00
BFF0
7EE0
1040
ENDCHAR
STARTCHAR backslash
ENCODING 92
SWIDTH 292 0
DWIDTH 5 0
BBX 6 16 0 -2
BITMAP
A000
B000
7400
3400
3800
2C00
1D00
0E00
0B00
0700
0340
0240
0280
01C0
00D0
0040
ENDCHAR
STARTCHAR bracketright
ENCODING 93
SWIDTH 407 0
DWIDTH 7 0
BBX 7 17 0 -1
BITMAP
1550
7FF0
7FF0
7FF0
06F0
02F0
02F0
01F0
01F4
01F4
01F4
01F4
01F0
01F0
BFF0
BFF4
0510
ENDCHAR
STARTCHAR asciicircum
ENCODING 94
SWIDTH 523 0
DWIDTH 9 0
BBX 8 6 1 13
BITMAP
1FE0
2FF0
3FF8
BCBC
F83E
A01D
ENDCHAR
STARTCHAR underscore
ENCODING 95
SWIDTH 452 0
DWIDTH 8 0
BBX 6 4 1 -1
BITMAP
5550
FFF0
FFF0
5550
ENDCHAR
STARTCHAR grave
ENCODING 96
SWIDTH 444 0
DWIDTH 8 0
BBX 6 4 1 14
BITMAP
2800
3E00
BFD0
06E0
ENDCHAR
STARTCHAR a
ENCODING 97
SWIDTH 479 0
DWIDTH 9 0
BBX 9 16 0 -2
BITMAP
055540
7FFF00
1FFD00
0FFD00
0FFD00
0FFD00
0FFC00
0FFC00
0FBD00
1F7D00
1F3D00
1FBD00
1FFC00
1F7C00
1E2C00
090000
ENDCHAR
STARTCHAR b
ENCODING 98
SWIDTH 610 0
DWIDTH 11 0
BBX 11 16 0 -2
BITMAP
000100
6BFFE0
3FFFF4
1FFFF4
0BFFF8
0BFFF8
0BEBF4
07E3F0
07E7E0
07FFC0
03FFC0
03E3D0
02E3D0
02FBC0
02AF80
000100
ENDCHAR
STARTCHAR c
ENCODING 99
SWIDTH 534 0
DWIDTH 10 0
BBX 10 15 0 -1
BITMAP
005400
0BFE00
2FFF80
7FFFD0
7FFFC0
7FFFC0
7FEFC0
3F4FC0
2F4A80
2F4000
2F4500
1F9F00
0FEF00
0BFD00
01A800
ENDCHAR
STARTCHAR d
ENCODING 100
SWIDTH 573 0
DWIDTH 10 0
BBX 9 16 1 -2
BITMAP
014000
BFFD00
FFFF40
BFFFC0
7FFFC0
3FFFC0
2FFFC0
2F9F80
1F4F40
1F4F40
0F4F00
0F5E00
0FAE00
0FFD00
0ABC00
086400
ENDCHAR
STARTCHAR e
ENCODING 101
SWIDTH 632 0
DWIDTH 11 0
BBX 11 15 0 -1
BITMAP
005400
6FFFF4
3FFFF0
1FFFE0
1FFFD0
0FFFD0
0FFBC0
0BE040
0BEA00
07FF00
07FF00
03E000
03EA40
02FF40
012640
ENDCHAR
STARTCHAR f
ENCODING 102
SWIDTH 559 0
DWIDTH 10 0
BBX 9 16 0 -2
BITMAP
014000
7FFF80
1FFF80
0FFF40
0BFF40
0BFF40
0BFF40
0BD100
07FD00
07FD00
07E500
07D000
07D000
07D000
059000
004000
ENDCHAR
STARTCHAR g
ENCODING 103
SWIDTH 546 0
DWIDTH 10 0
BBX 10 15 0 -2
BITMAP
0FFE00
3FFF80
7FFFD0
7FFFD0
7FFFD0
7FBFD0
3F1FC0
3F0BC0
2F1500
1F6FC0
1F6F80
0FDB80
0BFF80
03FF40
005000
ENDCHAR
STARTCHAR h
ENCODING 104
SWIDTH 730 0
DWIDTH 13 0
BBX 13 15 0 -1
BITMAP
00515400
6FE2FF40
2FE1FF00
1FE1FD00
1FD1FC00
0FD1FC00
0BD1F800
0BE6F400
07FFF400
07FFF000
07E3F000
07E3E000
03E3E000
03E3E000
01029000
ENDCHAR
STARTCHAR i
ENCODING 105
SWIDTH 412 0
DWIDTH 7 0
BBX 7 15 0 -1
BITMAP
0540
7FF8
2FF4
0FF0
0BE0
0FE0
0FD0
0BD0
0BD0
0BD0
07C0
07C0
07C0
03C0
0040
ENDCHAR
STARTCHAR j
ENCODING 106
SWIDTH 458 0
DWIDTH 8 0
BBX 9 15 -1 -1
BITMAP
005000
02FF40
00FF40
00FF00
00BE00
00BE00
00BE00
00BE00
007D00
147D00
7D7D00
3EBC00
2FFC00
1FF800
005400
ENDCHAR
STARTCHAR k
ENCODING 107
SWIDTH 636 0
DWIDTH 11 0
BBX 11 15 0 -1
BITMAP
001050
6FE7F8
2FDBD0
1FDB80
0BEF40
07EF00
07EE00
07FD00
03FD00
03FD00
02FE00
02EF00
02D780
01D3C0
005140
ENDCHAR
STARTCHAR l
ENCODING 108
SWIDTH 438 0
DWIDTH 8 0
BBX 9 15 0 -1
BITMAP
055400
7FF400
1FE000
1FD000
1FD000
0FD000
0FD000
0BD000
07D000
07D000
07D000
07E540
03FF00
03EF00
020A00
ENDCHAR
STARTCHAR m
ENCODING 109
SWIDTH 770 0
DWIDTH 14 0
BBX 12 15 1 -1
BITMAP
004550
6FD7FE
FFDBFC
7FEFF8
7FEFF4
7FFFF4
3FFFF0
3FFFF0
3FFFE0
2FBBE0
2FBBD0
1FB7C0
1F7780
1A2A80
040000
ENDCHAR
STARTCHAR n
ENCODING 110
SWIDTH 664 0
DWIDTH 12 0
BBX 12 16 0 -2
BITMAP
055100
7FE3FD
2FF2F8
2FF6F4
1FF7F0
1FFBF0
1FFFF0
1FFFE0
0FFFE0
0FFFD0
0BAFD0
0BAFC0
0B9FC0
078F40
064E40
000100
ENDCHAR
STARTCHAR o
ENCODING 111
SWIDTH 545 0
DWIDTH 10 0
BBX 10 15 0 -1
BITMAP
005000
0BFE00
2FFF80
7FFFD0
7FFFD0
7FFFD0
7FAFD0
3F1FD0
3F1FC0
2F1FC0
2F1F80
1F6F40
0FFF00
0BFE00
002900
ENDCHAR
STARTCHAR p
ENCODING 112
SWIDTH 557 0
DWIDTH 10 0
BBX 10 15 0 -1
BITMAP
010000
7FFF80
1FFFD0
0FFFE0
0FFFD0
0FFFD0
0FEBD0
0BD7C0
0BD7C0
07EF80
07FF40
07D500
03D000
03D000
029000
ENDCHAR
STARTCHAR q
ENCODING 113
SWIDTH 562 0
DWIDTH 10 0
BBX 10 16 0 -2
BITMAP
005400
07FE00
2FFFC0
3FFFD0
7FFFE0
BFFFE0
7FCBE0
3F8BE0
3F87D0
2F87D0
2F8BD0
0FDFC0
07FF80
02FFE0
0067D0
000080
ENDCHAR
STARTCHAR r
ENCODING 114
SWIDTH 616 0
DWIDTH 11 0
BBX 11 16 0 -2
BITMAP
005000
6FFF90
2FFFF4
0FFFF8
0BFFF8
0BFFF4
0BE7F4
07E2F0
07F7F0
07FFE0
03FFC0
03EB80
03EB80
03E780
0297C0
000040
ENDCHAR
STARTCHAR s
ENCODING 115
SWIDTH 481 0
DWIDTH 9 0
BBX 9 15 0 -1
BITMAP
004000
0BF800
2FFF00
3FFF40
7FFF00
7FFF00
7FBF00
7F2F00
3FA100
2FF800
06FC00
153D00
2F7C00
1FF800
0BA000
ENDCHAR
STARTCHAR t
ENCODING 116
SWIDTH 683 0
DWIDTH 12 0
BBX 12 16 0 -2
BITMAP
015540
6FFFFD
3FFFFC
1FFFF8
0FFFF8
0FFFF4
0BFFB4
053F00
003F00
003F00
003F00
002F00
002F00
002F00
002F00
001A00
ENDCHAR
STARTCHAR u
ENCODING 117
SWIDTH 708 0
DWIDTH 13 0
BBX 13 14 0 0
BITMAP
01500000
6FE1E900
2FE1FF40
1FE1FE00
0FF1FD00
0FF1FC00
0BF1F800
0BE2F400
07E2F400
07F2F400
03F3F000
02F7F000
02FFE000
01A69000
ENDCHAR
STARTCHAR v
ENCODING 118
SWIDTH 644 0
DWIDTH 12 0
BBX 10 15 1 -1
BITMAP
050500
FF0FE0
7F1FC0
3F5F80
2F5F40
1F6F40
1FAF00
0FAF00
0BAE00
0BFD00
03FD00
03FC00
02F800
00F800
00E400
ENDCHAR
STARTCHAR w
ENCODING 119
SWIDTH 704 0
DWIDTH 13 0
BBX 13 14 0 0
BITMAP
00040000
6F5D7A40
2F9E7E00
0FAE7D00
0BEFB800
07FFF400
03FFF000
02FFF000
01FFE000
00FFE000
00FBE000
00BBE000
0076D000
0026D000
ENDCHAR
STARTCHAR x
ENCODING 120
SWIDTH 599 0
DWIDTH 11 0
BBX 11 15 0 -1
BITMAP
010400
6FCBE4
0FDFD0
07FF40
02FE00
01FE00
01FD00
01FC00
00FC00
00FC00
00FC00
01FC00
01ED00
02DE00
024500
ENDCHAR
STARTCHAR y
ENCODING 121
SWIDTH 604 0
DWIDTH 11 0
BBX 9 15 1 -1
BITMAP
040000
FE1E80
2F2F80
0FBE00
0BFC00
07F800
03F800
02F400
02F400
01F400
01F000
01F400
01F000
01F000
00A000
ENDCHAR
STARTCHAR z
ENCODING 122
SWIDTH 622 0
DWIDTH 11 0
BBX 11 15 0 -1
BITMAP
015500
7FFFF4
3FFFF4
1FFFE0
0FFFD0
0BFFD0
0BAF80
053E00
007D00
00B800
00B400
00F500
02FF40
02FF00
015600
ENDCHAR
STARTCHAR braceleft
ENCODING 123
SWIDTH 372 0
DWIDTH 7 0
BBX 7 17 0 -2
BITMAP
00B4
03F4
0BF0
1FF0
2FF0
3FE0
3F40
7F00
7F00
7F00
7E00
3F00
3F40
1F80
0FE0
07E0
01E0
ENDCHAR
STARTCHAR bar
ENCODING 124
SWIDTH 208 0
DWIDTH 4 0
BBX 2 17 1 -2
BITMAP
50
A0
E0
E0
A0
90
D0
D0
D0
E0
E0
D0
90
90
D0
D0
90
ENDCHAR
STARTCHAR braceright
ENCODING 125
SWIDTH 338 0
DWIDTH 6 0
BBX 6 18 0 -3
BITMAP
6800
7F00
7FC0
7FC0
7FD0
3FD0
1FD0
07C0
07C0
07C0
07C0
0780
0B80
0F40
1F00
7D00
B800
1000
ENDCHAR
STARTCHAR asciitilde
ENCODING 126
SWIDTH 535 0
DWIDTH 10 0
BBX 9 4 0 10
BITMAP
181E00
7EBF80
2FFF80
0B8600
ENDCHAR
STARTCHAR exclamdown
ENCODING 161
SWIDTH 347 0
DWIDTH 6 0
BBX 6 21 0 1
BITMAP
2FD0
2FE0
2FE0
3FD0
7FE0
0540
0000
0640
0F40
0F40
0F40
0F80
0F80
1F80
2F80
3FC0
3FC0
2FD0
3FD0
7FE0
7FD0
ENDCHAR
STARTCHAR cent
ENCODING 162
SWIDTH 552 0
DWIDTH 10 0
BBX 10 26 0 -7
BITMAP
001000
005000
005000
005000
005000
00A400
0BFE00
2FFF80
7FFFD0
7FFFD0
7FFFD0
7FEFC0
3F4FC0
2F8A80
2F4000
1F4500
1F9F00
0FEF00
0BFE00
01A800
005000
005000
005000
005000
005000
005000
ENDCHAR
STARTCHAR sterling
ENCODING 163
SWIDTH 589 0
DWIDTH 11 0
BBX 10 14 0 -1
BITMAP
0BFE00
3FFFC0
3FFFE0
7FFFF0
3FFFF0
3FBFE0
2F4FD0
2F4BC0
7FE000
1F9000
0FE540
0FFF40
1FFF00
056A00
ENDCHAR
STARTCHAR yen
ENCODING 165
SWIDTH 692 0
DWIDTH 12 0
BBX 13 15 0 1
BITMAP
55414000
7FC2FE40
0BE3FC00
03FBF400
01FFD000
00FFC000
1AFFFA00
2ABF9900
002F8000
2FFFFE00
016F4000
002F4000
001F4000
000F4000
00054000
ENDCHAR
STARTCHAR brokenbar
ENCODING 166
SWIDTH 201 0
DWIDTH 4 0
BBX 2 17 1 -2
BITMAP
40
D0
E0
E0
D0
D0
50
00
00
00
50
D0
90
90
90
A0
90
ENDCHAR
STARTCHAR section
ENCODING 167
SWIDTH 477 0
DWIDTH 9 0
BBX 8 18 0 -4
BITMAP
0050
07FD
1FFF
2FFF
2FFE
1FBD
1F58
1FE4
2FFC
7D7D
BD3C
7E78
3FF4
0AF4
19B4
2FF0
1FE0
0400
ENDCHAR
STARTCHAR dieresis
ENCODING 168
SWIDTH 633 0
DWIDTH 11 0
BBX 9 5 1 14
BITMAP
651A80
BE2FC0
BE2FC0
BE2FC0
691540
ENDCHAR
STARTCHAR copyright
ENCODING 169
SWIDTH 783 0
DWIDTH 14 0
BBX 14 16 0 -2
BITMAP
006A9000
02E5A800
0B1B8600
1C7FE240
38BFF080
70FFF090
70FFF090
70B9F090
70B85090
70B80090
3479D0C0
283ED280
0D2F8700
07416D00
01FBF400
00154000
ENDCHAR
STARTCHAR guillemotleft
ENCODING 171
SWIDTH 759 0
DWIDTH 14 0
BBX 13 10 0 1
BITMAP
02F87F80
07F0BF00
0FE2FD00
2FC3F800
7F47F000
3F47F400
1F82F800
0BE0FD00
02F43F40
00A81A80
ENDCHAR
STARTCHAR uni00AD
ENCODING 173
SWIDTH 446 0
DWIDTH 8 0
BBX 6 3 1 5
BITMAP
5550
FFF0
6AA0
ENDCHAR
STARTCHAR registered
ENCODING 174
SWIDTH 780 0
DWIDTH 14 0
BBX 14 16 0 -2
BITMAP
006A4000
02E46400
0BAA4500
1EFFE240
38BFF080
70BFF0C0
70B9F090
6079E0D0
207FE090
303FC080
242DE080
1D1DB080
0B446600
02E56D00
007FE000
00010000
ENDCHAR
STARTCHAR macron
ENCODING 175
SWIDTH 446 0
DWIDTH 8 0
BBX 6 3 1 5
BITMAP
5550
FFF0
6AA0
ENDCHAR
STARTCHAR acute
ENCODING 180
SWIDTH 439 0
DWIDTH 8 0
BBX 6 4 1 14
BITMAP
0280
0BC0
7FE0
F900
ENDCHAR
STARTCHAR mu
ENCODING 181
SWIDTH 679 0
DWIDTH 12 0
BBX 12 14 0 0
BITMAP
014000
7FD2E9
3FD2FE
2FD2FD
1FE2FC
1FE2F8
0FE2F4
0FD3F0
0BD3F0
0BD3F0
0BE7E0
03EBE0
03FFD0
019A80
ENDCHAR
STARTCHAR paragraph
ENCODING 182
SWIDTH 591 0
DWIDTH 11 0
BBX 11 15 0 -1
BITMAP
000500
2FFFF4
7FFFE0
7FFAD0
7FF5C0
7FF5C0
3FF6C0
2FF6C0
0FF680
003680
003640
002640
003640
003240
002140
ENDCHAR
STARTCHAR periodcentered
ENCODING 183
SWIDTH 388 0
DWIDTH 7 0
BBX 5 6 1 4
BITMAP
5A40
FF80
BF80
BFC0
BF80
6A80
ENDCHAR
STARTCHAR cedilla
ENCODING 184
SWIDTH 270 0
DWIDTH 5 0
BBX 3 6 1 -6
BITMAP
B0
D0
E8
6C
6C
FC
ENDCHAR
STARTCHAR guillemotright
ENCODING 187
SWIDTH 767 0
DWIDTH 14 0
BBX 14 10 0 1
BITMAP
7FC3A000
2FD1F800
0BE0BE00
07F83F40
02FC2FC0
03F82FD0
07F47F80
1FD0BF00
7F81FD00
2902F800
ENDCHAR
STARTCHAR Agrave
ENCODING 192
SWIDTH 494 0
DWIDTH 9 0
BBX 9 22 -1 -3
BITMAP
180000
2F4000
7FD000
06F000
000000
000000
1BFF80
07FF40
03FF00
03FF00
03FE00
03FE00
03FE00
03DE00
03DE00
03EE00
07FE00
07FD00
03DD00
039D00
014800
000400
ENDCHAR
STARTCHAR Aacute
ENCODING 193
SWIDTH 494 0
DWIDTH 9 0
BBX 11 22 0 -3
BITMAP
0001D0
0007E0
001FF4
007A40
000000
000000
6FFE00
1FFD00
0FFC00
0FFC00
0FF800
0FF800
0FF800
0F7800
0F7800
0FB800
1FF800
1FF400
0F7400
0E7400
052000
001000
ENDCHAR
STARTCHAR Acircumflex
ENCODING 194
SWIDTH 494 0
DWIDTH 9 0
BBX 9 24 0 -3
BITMAP
06A000
0FF800
1FFC00
2E7E00
7C1F00
B00B40
000000
000000
6FFE00
1FFD00
0FFC00
0FFC00
0FF800
0FF800
0FF800
0F7800
0F7800
0FB800
1FF800
1FF400
0F7400
0E7400
052000
001000
ENDCHAR
STARTCHAR Atilde
ENCODING 195
SWIDTH 494 0
DWIDTH 9 0
BBX 9 22 0 -3
BITMAP
001400
7DBE00
7FFF40
2F9E00
050000
000000
6FFE00
1FFD00
0FFC00
0FFC00
0FF800
0FF800
0FF800
0F7800
0F7800
0FB800
1FF800
1FF400
0F7400
0E7400
052000
001000
ENDCHAR
STARTCHAR Adieresis
ENCODING 196
SWIDTH 494 0
DWIDTH 9 0
BBX 9 22 0 -3
BITMAP
651A80
FE2FC0
FE2FC0
FE2FC0
691540
000000
6FFE00
1FFD00
0FFC00
0FFC00
0FF800
0FF800
0FF800
0F7800
0F7800
0FB800
1FF800
1FF400
0F7400
0E7400
052000
001000
ENDCHAR
STARTCHAR Aring
ENCODING 197
SWIDTH 494 0
DWIDTH 9 0
BBX 8 23 0 -3
BITMAP
0040
07F4
0E6C
0A18
07B4
0190
0000
6FFE
1FFD
0FFC
0FFC
0FF8
0FF8
0FF8
0F78
0F78
0FB8
1FF8
1FF4
0F74
0E74
0520
0010
ENDCHAR
STARTCHAR AE
ENCODING 198
SWIDTH 733 0
DWIDTH 13 0
BBX 13 17 0 -3
BITMAP
00054000
6FFFFF40
1FFFFF00
0FFFFE00
0FFFFD00
0FFFFC00
0FFEAC00
0FFE0000
0F7FF000
0F7FF000
0FBE5000
1FFE5000
1FFFF400
0FB7F000
0D725000
05221000
00111000
ENDCHAR
STARTCHAR Ccedilla
ENCODING 199
SWIDTH 504 0
DWIDTH 9 0
BBX 9 22 0 -8
BITMAP
015000
0BFD00
2FFF40
7FFF80
7FFF80
7FFF80
7FBF80
7F1F40
3F1540
3F0000
2F1500
2F2E00
0FBE00
0FFC00
026400
015000
001C00
002800
003E40
001740
001740
002F40
ENDCHAR
STARTCHAR Egrave
ENCODING 200
SWIDTH 570 0
DWIDTH 10 0
BBX 10 20 0 -1
BITMAP
280000
3E0000
BFD000
06E000
000000
015000
7FFFD0
2FFFC0
1FFFC0
1FFF80
1FFF40
1FEB00
0F8000
0FFC00
0FFC00
0B9800
0B9400
0BFD00
05FC00
049400
ENDCHAR
STARTCHAR Eacute
ENCODING 201
SWIDTH 570 0
DWIDTH 10 0
BBX 11 20 0 -1
BITMAP
000070
0002F4
000BFC
002E50
000000
015000
7FFFD0
2FFFC0
1FFFC0
1FFF80
1FFF40
1FEB00
0F8000
0FFC00
0FFC00
0B9800
0B9400
0BFD00
05FC00
049400
ENDCHAR
STARTCHAR Ecircumflex
ENCODING 202
SWIDTH 570 0
DWIDTH 10 0
BBX 10 22 0 -1
BITMAP
02A800
03FD00
0BFE00
0FAF40
1E0B80
280280
000000
015000
7FFFD0
2FFFC0
1FFFC0
1FFF80
1FFF40
1FEB00
0F8000
0FFC00
0FFC00
0B9800
0B9400
0BFD00
05FC00
049400
ENDCHAR
STARTCHAR Edieresis
ENCODING 203
SWIDTH 570 0
DWIDTH 10 0
BBX 10 20 0 -1
BITMAP
290A90
3F4FE0
3F4FE0
3F4FE0
1A0550
015000
7FFFD0
2FFFC0
1FFFC0
1FFF80
1FFF40
1FEB00
0F8000
0FFC00
0FFC00
0B9800
0B9400
0BFD00
05FC00
049400
ENDCHAR
STARTCHAR Igrave
ENCODING 204
SWIDTH 401 0
DWIDTH 7 0
BBX 9 20 -2 -1
BITMAP
1C0000
2F4000
7FD000
06F000
000000
015500
07FF40
02FF00
00FE00
00FE00
00FE00
00FE00
00FD00
00FD00
00BD00
00BD00
007D00
007C00
006C00
001400
ENDCHAR
STARTCHAR Iacute
ENCODING 205
SWIDTH 401 0
DWIDTH 7 0
BBX 10 20 0 -1
BITMAP
000340
001F80
007FD0
00F900
000000
155000
7FF400
2FF000
0FE000
0FE000
0FE000
0FE000
0FD000
0FD000
0BD000
0BD000
07D000
07C000
06C000
014000
ENDCHAR
STARTCHAR Icircumflex
ENCODING 206
SWIDTH 401 0
DWIDTH 7 0
BBX 9 22 -1 -1
BITMAP
06A000
0BF800
1FFC00
2E7E00
3C1F00
740740
000000
055400
1FFD00
0BFC00
03F800
03F800
03F800
03F800
03F400
03F400
02F400
02F400
01F400
01F000
01B000
005000
ENDCHAR
STARTCHAR Idieresis
ENCODING 207
SWIDTH 401 0
DWIDTH 7 0
BBX 9 20 -1 -1
BITMAP
651A80
BE2FC0
BE2FC0
BE2FC0
691540
055400
1FFD00
0BFC00
03F800
03F800
03F800
03F800
03F400
03F400
02F400
02F400
01F400
01F000
01B000
005000
ENDCHAR
STARTCHAR Eth
ENCODING 208
SWIDTH 530 0
DWIDTH 10 0
BBX 10 17 0 -3
BITMAP
000500
1BFF40
1FFFD0
0FFFE0
0BFFE0
0BFFE0
07FBE0
07E3E0
6BE7D0
17E3C0
03D380
03E780
02FF80
02AF00
021900
011400
001000
ENDCHAR
STARTCHAR Ntilde
ENCODING 209
SWIDTH 610 0
DWIDTH 11 0
BBX 11 22 0 -3
BITMAP
040500
1E6F80
2FFFD0
0BEB80
014000
004400
7FCBE4
2FDBE0
1FE7D0
1FFBC0
1FFFC0
0FFFC0
0FFF80
0FFF80
0BFF80
07BF40
07AF40
079F40
078F40
078A00
014500
014000
ENDCHAR
STARTCHAR Ograve
ENCODING 210
SWIDTH 504 0
DWIDTH 9 0
BBX 10 21 -1 -2
BITMAP
180000
2F0000
BFD000
06F000
000000
001000
02FE40
0BFFD0
1FFFD0
1FFFE0
1FFFD0
1FEFE0
0F8BE0
0F8BE0
0B8BD0
0B8BC0
07CF80
07EF80
02FF00
008D00
000400
ENDCHAR
STARTCHAR Oacute
ENCODING 211
SWIDTH 504 0
DWIDTH 9 0
BBX 11 21 0 -2
BITMAP
0001C0
0007D0
002FF4
007A40
000000
004000
0BF900
2FFF40
7FFF40
7FFF80
7FFF40
7FBF80
3E2F80
3E2F80
2E2F40
2E2F00
1F3E00
1FBE00
0BFC00
023400
001000
ENDCHAR
STARTCHAR Ocircumflex
ENCODING 212
SWIDTH 504 0
DWIDTH 9 0
BBX 9 23 0 -2
BITMAP
06A000
0FF400
1FFC00
2E7D00
781F00
B00B00
000000
004000
0BF900
2FFF40
7FFF40
7FFF80
7FFF40
7FBF80
3E2F80
3E2F80
2E2F40
2E2F00
1F3E00
1FBE00
0BFC00
023400
001000
ENDCHAR
STARTCHAR Otilde
ENCODING 213
SWIDTH 504 0
DWIDTH 9 0
BBX 9 21 0 -2
BITMAP
101400
B9BD00
BFFF00
3FAD00
040000
004000
0BF900
2FFF40
7FFF40
7FFF80
7FFF40
7FBF80
3E2F80
3E2F80
2E2F40
2E2F00
1F3E00
1FBE00
0BFC00
023400
001000
ENDCHAR
STARTCHAR Odieresis
ENCODING 214
SWIDTH 504 0
DWIDTH 9 0
BBX 9 21 0 -2
BITMAP
651A80
FE3F80
FE3F80
FE3FC0
691540
004000
0BF900
2FFF40
7FFF40
7FFF80
7FFF40
7FBF80
3E2F80
3E2F80
2E2F40
2E2F00
1F3E00
1FBE00
0BFC00
023400
001000
ENDCHAR
STARTCHAR multiply
ENCODING 215
SWIDTH 359 0
DWIDTH 6 0
BBX 6 7 0 3
BITMAP
28D0
BFF0
3FE0
2FD0
7FF0
3DE0
1440
ENDCHAR
STARTCHAR Oslash
ENCODING 216
SWIDTH 658 0
DWIDTH 12 0
BBX 12 16 0 -2
BITMAP
004000
07FE40
1FFFC6
2FFFD8
3FFFE0
2FFFD0
2FEFD0
2F4FD0
1F6FD0
1FDFD0
0F4FC0
0F9F80
2FEF40
97FF00
419900
000400
ENDCHAR
STARTCHAR Ugrave
ENCODING 217
SWIDTH 637 0
DWIDTH 11 0
BBX 11 20 0 -1
BITMAP
0D0000
1F4000
7FE000
06B400
000000
054000
7FC7E4
2FC7F4
1FC7F0
1FC7E0
1FC7E0
0FCBD0
0FCBC0
0FCBC0
0FCBC0
0BCB80
0BDF80
07FF40
02DA00
010400
ENDCHAR
STARTCHAR Uacute
ENCODING 218
SWIDTH 637 0
DWIDTH 11 0
BBX 12 20 0 -1
BITMAP
000028
0000BC
0007FE
000F90
000000
054000
7FC7E4
2FC7F4
1FC7F0
1FC7E0
1FC7E0
0FCBD0
0FCBC0
0FCBC0
0FCBC0
0BCB80
0BDF80
07FF40
02DA00
010400
ENDCHAR
STARTCHAR Ucircumflex
ENCODING 219
SWIDTH 637 0
DWIDTH 11 0
BBX 11 22 0 -1
BITMAP
00A900
02FF00
03FF40
07DFC0
0B43D0
0D01D0
000000
054000
7FC7E4
2FC7F4
1FC7F0
1FC7E0
1FC7E0
0FCBD0
0FCBC0
0FCBC0
0FCBC0
0BCB80
0BDF80
07FF40
02DA00
010400
ENDCHAR
STARTCHAR Udieresis
ENCODING 220
SWIDTH 637 0
DWIDTH 11 0
BBX 11 20 0 -1
BITMAP
1946A0
1FC7F4
2FC7F4
1FC7F4
1A8250
054000
7FC7E4
2FC7F4
1FC7F0
1FC7E0
1FC7E0
0FCBD0
0FCBC0
0FCBC0
0FCBC0
0BCB80
0BDF80
07FF40
02DA00
010400
ENDCHAR
STARTCHAR Yacute
ENCODING 221
SWIDTH 688 0
DWIDTH 12 0
BBX 13 20 0 -1
BITMAP
00001C00
00007D00
0002FF40
0007A400
00000000
01404000
7FD1F900
0BF2FE00
02FBF400
00BFE000
007FC000
003FC000
002FC000
001F8000
000F8000
000F8000
000B8000
000B8000
000B4000
00050000
ENDCHAR
STARTCHAR Thorn
ENCODING 222
SWIDTH 521 0
DWIDTH 9 0
BBX 9 19 0 -2
BITMAP
154000
BFC000
BFC000
7F9000
7FFF40
3FFF80
3FFF80
3FFF80
3FFF80
2F9F80
2F8B80
1F8B40
1FFF00
0FFE00
0FC000
0FC000
0BC000
098000
044000
ENDCHAR
STARTCHAR germandbls
ENCODING 223
SWIDTH 546 0
DWIDTH 10 0
BBX 10 15 0 -2
BITMAP
1BFF40
3FFFC0
7FFFD0
7FFFD0
7FFFD0
7FAFC0
3F4F80
3F5F00
2F7E00
2F7E00
2F5F00
1F5F00
1F7E00
0A7D00
000400
ENDCHAR
STARTCHAR agrave
ENCODING 224
SWIDTH 479 0
DWIDTH 9 0
BBX 10 21 -1 -2
BITMAP
1D0000
2F4000
7FE000
06B400
000000
015550
1FFFC0
07FF40
03FF40
03FF40
03FF40
03FF00
03FF00
03EF40
07DF40
07CF40
07EF40
07FF00
07DF00
078B00
024000
ENDCHAR
STARTCHAR aacute
ENCODING 225
SWIDTH 479 0
DWIDTH 9 0
BBX 11 21 0 -2
BITMAP
000090
0007E0
001FF4
003E40
000000
055540
7FFF00
1FFD00
0FFD00
0FFD00
0FFD00
0FFC00
0FFC00
0FBD00
1F7D00
1F3D00
1FBD00
1FFC00
1F7C00
1E2C00
090000
ENDCHAR
STARTCHAR acircumflex
ENCODING 226
SWIDTH 479 0
DWIDTH 9 0
BBX 9 23 0 -2
BITMAP
06A400
0BF800
0FFD00
2F7E00
3D1F40
740740
000000
055540
7FFF00
1FFD00
0FFD00
0FFD00
0FFD00
0FFC00
0FFC00
0FBD00
1F7D00
1F3D00
1FBD00
1FFC00
1F7C00
1E2C00
090000
ENDCHAR
STARTCHAR atilde
ENCODING 227
SWIDTH 479 0
DWIDTH 9 0
BBX 9 21 0 -2
BITMAP
101400
78BE00
7FFF40
2FAE00
050000
055540
7FFF00
1FFD00
0FFD00
0FFD00
0FFD00
0FFC00
0FFC00
0FBD00
1F7D00
1F3D00
1FBD00
1FFC00
1F7C00
1E2C00
090000
ENDCHAR
STARTCHAR adieresis
ENCODING 228
SWIDTH 479 0
DWIDTH 9 0
BBX 9 21 0 -2
BITMAP
651A80
BE2FC0
BE2FC0
BE2FC0
691540
055540
7FFF00
1FFD00
0FFD00
0FFD00
0FFD00
0FFC00
0FFC00
0FBD00
1F7D00
1F3D00
1FBD00
1FFC00
1F7C00
1E2C00
090000
ENDCHAR
STARTCHAR aring
ENCODING 229
SWIDTH 479 0
DWIDTH 9 0
BBX 9 22 0 -2
BITMAP
005000
07F400
0A6C00
0A1C00
07B400
01A000
055540
7FFF00
1FFD00
0FFD00
0FFD00
0FFD00
0FFC00
0FFC00
0FBD00
1F7D00
1F3D00
1FBD00
1FFC00
1F7C00
1E2C00
090000
ENDCHAR
STARTCHAR ae
ENCODING 230
SWIDTH 755 0
DWIDTH 14 0
BBX 13 16 0 -2
BITMAP
05555000
7FFFFF80
1FFFFF40
0FFFFF00
0FFFFE00
0FFFFE00
0FFFBD00
0FFF0400
0FBFA400
0F7FF400
0F3FF400
0FBF0000
1FFFA400
0F7FF400
0E2D9400
09000000
ENDCHAR
STARTCHAR ccedilla
ENCODING 231
SWIDTH 534 0
DWIDTH 10 0
BBX 10 21 0 -7
BITMAP
005400
0BFE00
2FFF80
7FFFD0
7FFFC0
7FFFC0
7FEFC0
3F4FC0
2F4A80
2F4000
2F4500
1F9F00
0FEF00
0BFD00
01A800
002800
003400
007A00
001A00
001A00
007E00
ENDCHAR
STARTCHAR egrave
ENCODING 232
SWIDTH 632 0
DWIDTH 11 0
BBX 11 20 0 -1
BITMAP
1D0000
2F4000
7FD000
06B400
000000
005400
6FFFF4
3FFFF0
1FFFE0
1FFFD0
0FFFD0
0FFBC0
0BE040
0BEA00
07FF00
07FF00
03E000
03EA40
02FF40
012640
ENDCHAR
STARTCHAR eacute
ENCODING 233
SWIDTH 632 0
DWIDTH 11 0
BBX 12 20 0 -1
BITMAP
000024
0001F8
0007FD
000F90
000000
005400
6FFFF4
3FFFF0
1FFFE0
1FFFD0
0FFFD0
0FFBC0
0BE040
0BEA00
07FF00
07FF00
03E000
03EA40
02FF40
012640
ENDCHAR
STARTCHAR ecircumflex
ENCODING 234
SWIDTH 632 0
DWIDTH 11 0
BBX 11 22 0 -1
BITMAP
01A900
02FE00
03FF40
0BDF80
0F07D0
1D01D0
000000
005400
6FFFF4
3FFFF0
1FFFE0
1FFFD0
0FFFD0
0FFBC0
0BE040
0BEA00
07FF00
07FF00
03E000
03EA40
02FF40
012640
ENDCHAR
STARTCHAR edieresis
ENCODING 235
SWIDTH 632 0
DWIDTH 11 0
BBX 11 20 0 -1
BITMAP
1946A0
2F8BF0
2F8BF0
2F8BF0
1A4550
005400
6FFFF4
3FFFF0
1FFFE0
1FFFD0
0FFFD0
0FFBC0
0BE040
0BEA00
07FF00
07FF00
03E000
03EA40
02FF40
012640
ENDCHAR
STARTCHAR igrave
ENCODING 236
SWIDTH 411 0
DWIDTH 7 0
BBX 9 20 -2 -1
BITMAP
1D0000
2F4000
7FE000
06B400
000000
005400
07FF80
02FF40
00FF00
00BE00
00FE00
00FD00
00BD00
00BD00
00BD00
007C00
007C00
007C00
003C00
000400
ENDCHAR
STARTCHAR iacute
ENCODING 237
SWIDTH 411 0
DWIDTH 7 0
BBX 10 20 0 -1
BITMAP
000240
001F80
007FD0
00F900
000000
054000
7FF800
2FF400
0FF000
0BE000
0FE000
0FD000
0BD000
0BD000
0BD000
07C000
07C000
07C000
03C000
004000
ENDCHAR
STARTCHAR icircumflex
ENCODING 238
SWIDTH 411 0
DWIDTH 7 0
BBX 8 22 0 -1
BITMAP
0AA0
1FF4
2FF8
3DBD
B82E
E00A
0000
0540
7FF8
2FF4
0FF0
0BE0
0FE0
0FD0
0BD0
0BD0
0BD0
07C0
07C0
07C0
03C0
0040
ENDCHAR
STARTCHAR idieresis
ENCODING 239
SWIDTH 411 0
DWIDTH 7 0
BBX 9 20 -1 -1
BITMAP
651A80
BF2FC0
BF2FC0
BE2FC0
691540
015000
1FFE00
0BFD00
03FC00
02F800
03F800
03F400
02F400
02F400
02F400
01F000
01F000
01F000
00F000
001000
ENDCHAR
STARTCHAR eth
ENCODING 240
SWIDTH 530 0
DWIDTH 10 0
BBX 10 17 0 -3
BITMAP
000500
1BFF40
1FFFD0
0FFFE0
0BFFE0
0BFFE0
07FBE0
07E3E0
6BE7D0
17E3C0
03D380
03E780
02FF80
02AF00
021900
011400
001000
ENDCHAR
STARTCHAR ntilde
ENCODING 241
SWIDTH 664 0
DWIDTH 12 0
BBX 12 21 0 -2
BITMAP
010100
0B5FD0
0FFFE0
07FAD0
004000
055100
7FE3FD
2FF2F8
2FF6F4
1FF7F0
1FFBF0
1FFFF0
1FFFE0
0FFFE0
0FFFD0
0BAFD0
0BAFC0
0B9FC0
078F40
064E40
000100
ENDCHAR
STARTCHAR ograve
ENCODING 242
SWIDTH 545 0
DWIDTH 10 0
BBX 11 20 -1 -1
BITMAP
0D0000
1F4000
7FE000
06B400
000000
001400
02FF80
0BFFE0
1FFFF4
1FFFF4
1FFFF4
1FEBF4
0FC7F4
0FC7F0
0BC7F0
0BC7E0
07DBD0
03FFC0
02FF80
000A40
ENDCHAR
STARTCHAR oacute
ENCODING 243
SWIDTH 545 0
DWIDTH 10 0
BBX 11 20 0 -1
BITMAP
0000A0
0002F0
001FF8
003E40
000000
005000
0BFE00
2FFF80
7FFFD0
7FFFD0
7FFFD0
7FAFD0
3F1FD0
3F1FC0
2F1FC0
2F1F80
1F6F40
0FFF00
0BFE00
002900
ENDCHAR
STARTCHAR ocircumflex
ENCODING 244
SWIDTH 545 0
DWIDTH 10 0
BBX 10 22 0 -1
BITMAP
02A400
0BFC00
0FFD00
1F7F00
3D0F40
740740
000000
005000
0BFE00
2FFF80
7FFFD0
7FFFD0
7FFFD0
7FAFD0
3F1FD0
3F1FC0
2F1FC0
2F1F80
1F6F40
0FFF00
0BFE00
002900
ENDCHAR
STARTCHAR otilde
ENCODING 245
SWIDTH 545 0
DWIDTH 10 0
BBX 10 20 0 -1
BITMAP
001400
7DBE00
7FFF40
2F9E00
050000
005000
0BFE00
2FFF80
7FFFD0
7FFFD0
7FFFD0
7FAFD0
3F1FD0
3F1FC0
2F1FC0
2F1F80
1F6F40
0FFF00
0BFE00
002900
ENDCHAR
STARTCHAR odieresis
ENCODING 246
SWIDTH 545 0
DWIDTH 10 0
BBX 10 20 0 -1
BITMAP
651A80
7F1FD0
BF1FD0
BF1FD0
6A1940
005000
0BFE00
2FFF80
7FFFD0
7FFFD0
7FFFD0
7FAFD0
3F1FD0
3F1FC0
2F1FC0
2F1F80
1F6F40
0FFF00
0BFE00
002900
ENDCHAR
STARTCHAR oslash
ENCODING 248
SWIDTH 676 0
DWIDTH 12 0
BBX 12 15 0 -1
BITMAP
005400
0BFE01
1FFF88
3FFFE0
7FFFD0
3FFFD0
3FAFD0
2F6FD0
2FAFC0
1F4FC0
1F1F80
1F6F40
6FFF00
86FE00
006900
ENDCHAR
STARTCHAR ugrave
ENCODING 249
SWIDTH 708 0
DWIDTH 13 0
BBX 13 19 0 0
BITMAP
06000000
0BD00000
1FF40000
01BC0000
00000000
01500000
6FE1E900
2FE1FF40
1FE1FE00
0FF1FD00
0FF1FC00
0BF1F800
0BE2F400
07E2F400
07F2F400
03F3F000
02F7F000
02FFE000
01A69000
ENDCHAR
STARTCHAR uacute
ENCODING 250
SWIDTH 708 0
DWIDTH 13 0
BBX 13 19 0 0
BITMAP
00001D00
00007E00
0001FF40
0007A400
00000000
01500000
6FE1E900
2FE1FF40
1FE1FE00
0FF1FD00
0FF1FC00
0BF1F800
0BE2F400
07E2F400
07F2F400
03F3F000
02F7F000
02FFE000
01A69000
ENDCHAR
STARTCHAR ucircumflex
ENCODING 251
SWIDTH 708 0
DWIDTH 13 0
BBX 13 21 0 0
BITMAP
006A0000
00FF8000
01FFC000
02E7E000
07C1F000
0B00B400
00000000
01500000
6FE1E900
2FE1FF40
1FE1FE00
0FF1FD00
0FF1FC00
0BF1F800
0BE2F400
07E2F400
07F2F400
03F3F000
02F7F000
02FFE000
01A69000
ENDCHAR
STARTCHAR udieresis
ENCODING 252
SWIDTH 708 0
DWIDTH 13 0
BBX 13 19 0 0
BITMAP
0651A800
0FE2FC00
0FE2FC00
0FE2FC00
06915400
01500000
6FE1E900
2FE1FF40
1FE1FE00
0FF1FD00
0FF1FC00
0BF1F800
0BE2F400
07E2F400
07F2F400
03F3F000
02F7F000
02FFE000
01A69000
ENDCHAR
STARTCHAR yacute
ENCODING 253
SWIDTH 604 0
DWIDTH 11 0
BBX 11 20 1 -1
BITMAP
0001D0
0007E0
001FF4
007E40
000000
040000
FE1E80
2F2F80
0FBE00
0BFC00
07F800
03F800
02F400
02F400
01F400
01F000
01F400
01F000
01F000
00A000
ENDCHAR
STARTCHAR thorn
ENCODING 254
SWIDTH 498 0
DWIDTH 9 0
BBX 9 19 0 -2
BITMAP
154000
BF8000
BF8000
7F9000
7FFE00
3FFF40
3FFF40
3FFF40
3FFF40
2F9F40
2F4F40
1F8F00
1FFE00
0FFD00
0F8000
0F8000
0BC000
098000
044000
ENDCHAR
STARTCHAR ydieresis
ENCODING 255
SWIDTH 604 0
DWIDTH 11 0
BBX 10 20 1 -1
BITMAP
290A90
7F5FD0
7F5FD0
7F1FD0
2A0540
040000
FE1E80
2F2F80
0FBE00
0BFC00
07F800
03F800
02F400
02F400
01F400
01F000
01F400
01F000
01F000
00A000
ENDCHAR
STARTCHAR Amacron
ENCODING 256
SWIDTH 494 0
DWIDTH 9 0
BBX 8 20 0 -3
BITMAP
1554
2FFD
1AA9
0000
6FFE
1FFD
0FFC
0FFC
0FF8
0FF8
0FF8
0F78
0F78
0FB8
1FF8
1FF4
0F74
0E74
0520
0010
ENDCHAR
STARTCHAR amacron
ENCODING 257
SWIDTH 479 0
DWIDTH 9 0
BBX 9 19 0 -2
BITMAP
155500
1FFE00
1AA900
055540
7FFF00
1FFD00
0FFD00
0FFD00
0FFD00
0FFC00
0FFC00
0FBD00
1F7D00
1F3D00
1FBD00
1FFC00
1F7C00
1E2C00
090000
ENDCHAR
STARTCHAR Abreve
ENCODING 258
SWIDTH 494 0
DWIDTH 9 0
BBX 9 23 0 -3
BITMAP
0A0540
0F0B80
0BEF40
06FE00
005900
000000
000000
6FFE00
1FFD00
0FFC00
0FFC00
0FF800
0FF800
0FF800
0F7800
0F7800
0FB800
1FF800
1FF400
0F7400
0E7400
052000
001000
ENDCHAR
STARTCHAR abreve
ENCODING 259
SWIDTH 479 0
DWIDTH 9 0
BBX 9 22 0 -2
BITMAP
0A0540
0F0B80
0BEF40
06FE00
005900
000000
055540
7FFF00
1FFD00
0FFD00
0FFD00
0FFD00
0FFC00
0FFC00
0FBD00
1F7D00
1F3D00
1FBD00
1FFC00
1F7C00
1E2C00
090000
ENDCHAR
STARTCHAR Aogonek
ENCODING 260
SWIDTH 494 0
DWIDTH 9 0
BBX 9 21 0 -8
BITMAP
6FFE00
1FFD00
0FFC00
0FFC00
0FF800
0FF800
0FF800
0F7800
0F7800
0FB800
1FF800
1FF400
0F7400
0E7400
05B000
00F000
00E000
00F000
00FE40
007F40
001640
ENDCHAR
STARTCHAR aogonek
ENCODING 261
SWIDTH 479 0
DWIDTH 9 0
BBX 10 21 0 -7
BITMAP
055540
7FFF00
1FFD00
0FFD00
0FFD00
0FFD00
0FFC00
0FFC00
0FBD00
1F7D00
1F3D00
1FBD00
1FFC00
1F7C00
1E3C00
093800
003800
003800
003F90
001FD0
000140
ENDCHAR
STARTCHAR Cacute
ENCODING 262
SWIDTH 504 0
DWIDTH 9 0
BBX 10 21 0 -2
BITMAP
000240
001F80
007FD0
00F900
000000
015000
0BFD00
2FFF40
7FFF80
7FFF80
7FFF80
7FBF80
7F1F40
3F1540
3F0000
2F1500
2F2E00
0FBE00
0FFC00
026400
015000
ENDCHAR
STARTCHAR cacute
ENCODING 263
SWIDTH 534 0
DWIDTH 10 0
BBX 10 20 0 -1
BITMAP
000280
000BC0
002FE0
00B900
000000
005400
0BFE00
2FFF80
7FFFD0
7FFFC0
7FFFC0
7FEFC0
3F4FC0
2F4A80
2F4000
2F4500
1F9F00
0FEF00
0BFD00
01A800
ENDCHAR
STARTCHAR Ccircumflex
ENCODING 264
SWIDTH 504 0
DWIDTH 9 0
BBX 9 23 0 -2
BITMAP
02A400
07FC00
0BFE00
1F6F00
2D0F80
380380
000000
015000
0BFD00
2FFF40
7FFF80
7FFF80
7FFF80
7FBF80
7F1F40
3F1540
3F0000
2F1500
2F2E00
0FBE00
0FFC00
026400
015000
ENDCHAR
STARTCHAR ccircumflex
ENCODING 265
SWIDTH 534 0
DWIDTH 10 0
BBX 10 22 0 -1
BITMAP
01A800
02FE00
07FF00
0B9F80
0F07C0
1C01D0
000000
005400
0BFE00
2FFF80
7FFFD0
7FFFC0
7FFFC0
7FEFC0
3F4FC0
2F4A80
2F4000
2F4500
1F9F00
0FEF00
0BFD00
01A800
ENDCHAR
STARTCHAR Cdotaccent
ENCODING 266
SWIDTH 504 0
DWIDTH 9 0
BBX 9 23 0 -2
BITMAP
05A800
0BFC00
07FC00
07FD00
07FC00
07A800
000000
015000
0BFD00
2FFF40
7FFF80
7FFF80
7FFF80
7FBF80
7F1F40
3F1540
3F0000
2F1500
2F2E00
0FBE00
0FFC00
026400
015000
ENDCHAR
STARTCHAR cdotaccent
ENCODING 267
SWIDTH 534 0
DWIDTH 10 0
BBX 10 22 0 -1
BITMAP
016900
07FD00
03FD00
03FE00
03FD00
02A900
000000
005400
0BFE00
2FFF80
7FFFD0
7FFFC0
7FFFC0
7FEFC0
3F4FC0
2F4A80
2F4000
2F4500
1F9F00
0FEF00
0BFD00
01A800
ENDCHAR
STARTCHAR Ccaron
ENCODING 268
SWIDTH 504 0
DWIDTH 9 0
BBX 9 23 0 -2
BITMAP
280700
3D0F80
2F2F00
1FBE00
0BFC00
07F800
011000
015000
0BFD00
2FFF40
7FFF80
7FFF80
7FFF80
7FBF80
7F1F40
3F1540
3F0000
2F1500
2F2E00
0FBE00
0FFC00
026400
015000
ENDCHAR
STARTCHAR ccaron
ENCODING 269
SWIDTH 534 0
DWIDTH 10 0
BBX 10 22 0 -1
BITMAP
1D0280
2F07C0
0F8F80
0BEF40
07FE00
02FC00
000400
005400
0BFE00
2FFF80
7FFFD0
7FFFC0
7FFFC0
7FEFC0
3F4FC0
2F4A80
2F4000
2F4500
1F9F00
0FEF00
0BFD00
01A800
ENDCHAR
STARTCHAR Dcaron
ENCODING 270
SWIDTH 522 0
DWIDTH 9 0
BBX 9 23 1 -2
BITMAP
780A00
7D1F40
3E3F00
1FBD00
0FFC00
0BF400
011000
000000
AFF800
FFFE00
BFFF00
7FFF00
7FFF00
7FBF00
3E2E00
3E2D00
3E2D00
2E2C00
2F7C00
1FFC00
2AF400
15D000
118000
ENDCHAR
STARTCHAR dcaron
ENCODING 271
SWIDTH 522 0
DWIDTH 9 0
BBX 9 23 1 -2
BITMAP
780A00
7D1F40
3E3F00
1FBD00
0FFC00
0BF400
011000
000000
AFF800
FFFE00
BFFF00
7FFF00
7FFF00
7FBF00
3E2E00
3E2D00
3E2D00
2E2C00
2F7C00
1FFC00
2AF400
15D000
118000
ENDCHAR
STARTCHAR Eth.dup2
ENCODING 272
SWIDTH 530 0
DWIDTH 10 0
BBX 10 17 0 -3
BITMAP
000500
1BFF40
1FFFD0
0FFFE0
0BFFE0
0BFFE0
07FBE0
07E3E0
6BE7D0
17E3C0
03D380
03E780
02FF80
02AF00
021900
011400
001000
ENDCHAR
STARTCHAR Emacron
ENCODING 274
SWIDTH 570 0
DWIDTH 10 0
BBX 10 18 0 -1
BITMAP
055500
0FFF00
06AA00
015000
7FFFD0
2FFFC0
1FFFC0
1FFF80
1FFF40
1FEB00
0F8000
0FFC00
0FFC00
0B9800
0B9400
0BFD00
05FC00
049400
ENDCHAR
STARTCHAR emacron
ENCODING 275
SWIDTH 632 0
DWIDTH 11 0
BBX 11 18 0 -1
BITMAP
055540
0BFF80
06AA40
005400
6FFFF4
3FFFF0
1FFFE0
1FFFD0
0FFFD0
0FFBC0
0BE040
0BEA00
07FF00
07FF00
03E000
03EA40
02FF40
012640
ENDCHAR
STARTCHAR Ebreve
ENCODING 276
SWIDTH 570 0
DWIDTH 10 0
BBX 10 21 0 -1
BITMAP
068140
0783D0
03EBC0
02FF40
005A00
000000
015000
7FFFD0
2FFFC0
1FFFC0
1FFF80
1FFF40
1FEB00
0F8000
0FFC00
0FFC00
0B9800
0B9400
0BFD00
05FC00
049400
ENDCHAR
STARTCHAR ebreve
ENCODING 277
SWIDTH 632 0
DWIDTH 11 0
BBX 11 21 0 -1
BITMAP
019050
01E0F0
00FAE0
00BFD0
001280
000000
005400
6FFFF4
3FFFF0
1FFFE0
1FFFD0
0FFFD0
0FFBC0
0BE040
0BEA00
07FF00
07FF00
03E000
03EA40
02FF40
012640
ENDCHAR
STARTCHAR Edotaccent
ENCODING 278
SWIDTH 570 0
DWIDTH 10 0
BBX 10 21 0 -1
BITMAP
016900
07FD00
07FD00
03FD00
03FD00
03A900
015000
7FFFD0
2FFFC0
1FFFC0
1FFF80
1FFF40
1FEB00
0F8000
0FFC00
0FFC00
0B9800
0B9400
0BFD00
05FC00
049400
ENDCHAR
STARTCHAR edotaccent
ENCODING 279
SWIDTH 632 0
DWIDTH 11 0
BBX 11 21 0 -1
BITMAP
016900
03FE00
02FE00
02FF00
02FE00
01AA00
005400
6FFFF4
3FFFF0
1FFFE0
1FFFD0
0FFFD0
0FFBC0
0BE040
0BEA00
07FF00
07FF00
03E000
03EA40
02FF40
012640
ENDCHAR
STARTCHAR Eogonek
ENCODING 280
SWIDTH 513 0
DWIDTH 9 0
BBX 10 20 0 -6
BITMAP
015000
7FFFD0
2FFFC0
1FFFC0
1FFF80
1FFF40
1FEB00
0F8000
0FFC00
0FFC00
0B9800
0B9400
0BFD00
07FC00
047C00
007400
00B400
007D40
003FC0
000A80
ENDCHAR
STARTCHAR eogonek
ENCODING 281
SWIDTH 632 0
DWIDTH 11 0
BBX 11 20 0 -6
BITMAP
005400
6FFFF4
3FFFF0
1FFFE0
1FFFD0
0FFFD0
0FFBC0
0BE040
0BEA00
07FF00
07FF00
03E000
03EA40
02FF40
012E00
001D00
002D00
001F50
000FF0
0006F0
ENDCHAR
STARTCHAR Ecaron
ENCODING 282
SWIDTH 570 0
DWIDTH 10 0
BBX 10 22 0 -1
BITMAP
1E0280
1F47D0
0F8FC0
07EF40
03FF00
02FD00
004400
015000
7FFFD0
2FFFC0
1FFFC0
1FFF80
1FFF40
1FEB00
0F8000
0FFC00
0FFC00
0B9800
0B9400
0BFD00
05FC00
049400
ENDCHAR
STARTCHAR ecaron
ENCODING 283
SWIDTH 632 0
DWIDTH 11 0
BBX 11 22 0 -1
BITMAP
0740A0
07C1F4
03E3E0
02FBD0
00FF80
00BF40
001100
005400
6FFFF4
3FFFF0
1FFFE0
1FFFD0
0FFFD0
0FFBC0
0BE040
0BEA00
07FF00
07FF00
03E000
03EA40
02FF40
012640
ENDCHAR
STARTCHAR Gcircumflex
ENCODING 284
SWIDTH 499 0
DWIDTH 9 0
BBX 9 23 0 -2
BITMAP
06A000
0BF800
1FFC00
2E7E00
3C1F00
700B40
000000
000000
0BF800
3FFF00
7FFF40
7FFF80
7FFF80
3FBF40
3E2F40
3E1A40
2E6A00
2E7F40
1F1F00
1FBF00
0FFE00
06A800
010000
ENDCHAR
STARTCHAR gcircumflex
ENCODING 285
SWIDTH 546 0
DWIDTH 10 0
BBX 10 23 0 -2
BITMAP
02A400
07FC00
0FFD00
1F6F00
2D0F40
340780
000000
000000
0FFE00
3FFF80
7FFFD0
7FFFD0
7FFFD0
7FBFD0
3F1FC0
3F0BC0
2F1500
1F6FC0
1F6F80
0FDB80
0BFF80
03FF40
005000
ENDCHAR
STARTCHAR Gbreve
ENCODING 286
SWIDTH 499 0
DWIDTH 9 0
BBX 9 22 0 -2
BITMAP
190500
1E0F00
1FAE00
0BFD00
013800
000000
000000
0BF800
3FFF00
7FFF40
7FFF80
7FFF80
3FBF40
3E2F40
3E1A40
2E6A00
2E7F40
1F1F00
1FBF00
0FFE00
06A800
010000
ENDCHAR
STARTCHAR gbreve
ENCODING 287
SWIDTH 546 0
DWIDTH 10 0
BBX 10 22 0 -2
BITMAP
0A0540
0F0B80
0BEF40
06FE00
005900
000000
000000
0FFE00
3FFF80
7FFFD0
7FFFD0
7FFFD0
7FBFD0
3F1FC0
3F0BC0
2F1500
1F6FC0
1F6F80
0FDB80
0BFF80
03FF40
005000
ENDCHAR
STARTCHAR Gdotaccent
ENCODING 288
SWIDTH 499 0
DWIDTH 9 0
BBX 9 22 0 -2
BITMAP
05A400
0FF800
0FF800
0BF800
0BF800
0AA400
000000
0BF800
3FFF00
7FFF40
7FFF80
7FFF80
3FBF40
3E2F40
3E1A40
2E6A00
2E7F40
1F1F00
1FBF00
0FFE00
06A800
010000
ENDCHAR
STARTCHAR gdotaccent
ENCODING 289
SWIDTH 546 0
DWIDTH 10 0
BBX 10 22 0 -2
BITMAP
05A800
0BFC00
07FC00
07FC00
07FC00
07A800
000000
0FFE00
3FFF80
7FFFD0
7FFFD0
7FFFD0
7FBFD0
3F1FC0
3F0BC0
2F1500
1F6FC0
1F6F80
0FDB80
0BFF80
03FF40
005000
ENDCHAR
STARTCHAR Gcommaaccent
ENCODING 290
SWIDTH 499 0
DWIDTH 9 0
BBX 9 24 0 -11
BITMAP
0BF800
3FFF00
7FFF40
7FFF80
7FFF80
3FBF40
3E2F40
3E1A40
2E6A00
2E7F40
1F1F00
1FBF00
0FFE00
06A800
010000
000000
03FC00
03FD00
03FD00
03FD00
016D00
002C00
003C00
002400
ENDCHAR
STARTCHAR Hcircumflex
ENCODING 292
SWIDTH 726 0
DWIDTH 13 0
BBX 13 25 0 -4
BITMAP
006A0000
00FF4000
01FFC000
02E7D000
0781F000
0B00B000
00000000
00100000
6BE2FF40
2FD1FF00
1FD1FD00
1FD2FC00
0FD2FC00
0FD2F800
0BD2F400
0BFFF000
07FFF000
07E7F000
03D3E000
03D3E000
03D7D000
02429000
00000000
00040000
00040000
ENDCHAR
STARTCHAR hcircumflex
ENCODING 293
SWIDTH 730 0
DWIDTH 13 0
BBX 13 22 0 -1
BITMAP
006A0000
00BF8000
01FFC000
02E7E000
03C1F000
0700B400
00000000
00515400
6FE2FF40
2FE1FF00
1FE1FD00
1FD1FC00
0FD1FC00
0BD1F800
0BE6F400
07FFF400
07FFF000
07E3F000
07E3E000
03E3E000
03E3E000
01029000
ENDCHAR
STARTCHAR hbar
ENCODING 295
SWIDTH 704 0
DWIDTH 13 0
BBX 12 15 0 -1
BITMAP
005154
6FE3FF
2FD3FD
1FFBFC
1FFFF8
0FFFF8
0BD7F4
0BD7F0
07FFE0
07FFE0
07E3F0
07E3E0
03E3E0
03E3E0
010290
ENDCHAR
STARTCHAR Itilde
ENCODING 296
SWIDTH 401 0
DWIDTH 7 0
BBX 9 20 -1 -1
BITMAP
101400
79BE00
BFFF40
2FAE00
050000
055400
1FFD00
0BFC00
03F800
03F800
03F800
03F800
03F400
03F400
02F400
02F400
01F400
01F000
01B000
005000
ENDCHAR
STARTCHAR itilde
ENCODING 297
SWIDTH 411 0
DWIDTH 7 0
BBX 9 20 -1 -1
BITMAP
101400
78BE00
7FFF40
2FAE00
050000
015000
1FFE00
0BFD00
03FC00
02F800
03F800
03F400
02F400
02F400
02F400
01F000
01F000
01F000
00F000
001000
ENDCHAR
STARTCHAR Imacron
ENCODING 298
SWIDTH 401 0
DWIDTH 7 0
BBX 7 18 0 -1
BITMAP
5554
BFF4
6AA4
1550
7FF4
2FF0
0FE0
0FE0
0FE0
0FE0
0FD0
0FD0
0BD0
0BD0
07D0
07C0
06C0
0140
ENDCHAR
STARTCHAR imacron
ENCODING 299
SWIDTH 411 0
DWIDTH 7 0
BBX 7 18 0 -1
BITMAP
5554
7FF8
6AA4
0540
7FF8
2FF4
0FF0
0BE0
0FE0
0FD0
0BD0
0BD0
0BD0
07C0
07C0
07C0
03C0
0040
ENDCHAR
STARTCHAR Ibreve
ENCODING 300
SWIDTH 401 0
DWIDTH 7 0
BBX 8 21 0 -1
BITMAP
6814
7C3D
3EBC
2BF8
01A0
0000
1550
7FF4
2FF0
0FE0
0FE0
0FE0
0FE0
0FD0
0FD0
0BD0
0BD0
07D0
07C0
06C0
0140
ENDCHAR
STARTCHAR ibreve
ENCODING 301
SWIDTH 411 0
DWIDTH 7 0
BBX 8 21 0 -1
BITMAP
6814
783D
3EBC
2FF4
05A0
0000
0540
7FF8
2FF4
0FF0
0BE0
0FE0
0FD0
0BD0
0BD0
0BD0
07C0
07C0
07C0
03C0
0040
ENDCHAR
STARTCHAR Iogonek
ENCODING 302
SWIDTH 401 0
DWIDTH 7 0
BBX 7 21 0 -7
BITMAP
1550
7FF4
2FF0
0FE0
0FE0
0FE0
0FE0
0FD0
0FD0
0BD0
0BD0
07D0
07C0
07C0
0780
0B00
0B00
0F00
0F94
0BF8
02F8
ENDCHAR
STARTCHAR iogonek
ENCODING 303
SWIDTH 412 0
DWIDTH 7 0
BBX 7 21 0 -7
BITMAP
0540
7FF8
2FF4
0FF0
0BE0
0FE0
0FD0
0BD0
0BD0
0BD0
07C0
07C0
07C0
07C0
0780
0B40
0F00
0F40
0BE4
07F8
01A4
ENDCHAR
STARTCHAR Idotaccent
ENCODING 304
SWIDTH 401 0
DWIDTH 7 0
BBX 7 21 0 -1
BITMAP
1690
3FE0
2FE0
2FE0
2FE0
2A90
1550
7FF4
2FF0
0FE0
0FE0
0FE0
0FE0
0FD0
0FD0
0BD0
0BD0
07D0
07C0
06C0
0140
ENDCHAR
STARTCHAR dotlessi
ENCODING 305
SWIDTH 411 0
DWIDTH 7 0
BBX 7 15 0 -1
BITMAP
0540
7FF8
2FF4
0FF0
0BE0
0FE0
0FD0
0BD0
0BD0
0BD0
07C0
07C0
07C0
03C0
0040
ENDCHAR
STARTCHAR IJ
ENCODING 306
SWIDTH 908 0
DWIDTH 16 0
BBX 16 15 0 -1
BITMAP
15540000
7FF803FD
2FF402FC
0FF001FC
0FF001F4
0FF002F4
0FE002F4
0FE002F0
0BE001F0
0BE012F0
0BD1F2E0
07D0F6E0
07D0FFD0
02D07BC0
01400500
ENDCHAR
STARTCHAR ij
ENCODING 307
SWIDTH 901 0
DWIDTH 16 0
BBX 16 15 0 -1
BITMAP
05500540
7FF80BF9
2FF407FC
0FF003FC
0BF002F8
0FE002F8
0FE002F8
0BE002F4
0BE002F4
07E052F4
07D0F6F4
07D0FAF0
03D0BFE0
03D07FE0
00400150
ENDCHAR
STARTCHAR Jcircumflex
ENCODING 308
SWIDTH 455 0
DWIDTH 8 0
BBX 10 22 -1 -1
BITMAP
00AA00
01FF40
02FF80
03DBD0
0B82E0
0E00A0
000000
000000
00FF40
00BF00
007E00
007D00
00BD00
00BD00
00BC00
00BC00
14B800
7CB800
3CF800
3FF400
1EF000
004000
ENDCHAR
STARTCHAR jcircumflex
ENCODING 309
SWIDTH 458 0
DWIDTH 8 0
BBX 10 22 -1 -1
BITMAP
00AA00
01FF40
02FF80
03DBD0
0B82E0
0A00A0
000000
005000
02FF40
00FF40
00FF00
00BE00
00BE00
00BE00
00BE00
007D00
147D00
7D7D00
3EBC00
2FFC00
1FF800
005400
ENDCHAR
STARTCHAR Kcommaaccent
ENCODING 310
SWIDTH 580 0
DWIDTH 10 0
BBX 10 24 0 -10
BITMAP
040000
7FCBE0
2FCF80
0FDE00
0BEE00
0BFD00
0BFD00
07FD00
07FD00
03FD00
03FD00
03DE00
03CF00
02CB00
014500
000000
01FE00
01FF00
01FF00
01FF00
005F00
000E00
001E00
001900
ENDCHAR
STARTCHAR kcommaaccent
ENCODING 311
SWIDTH 636 0
DWIDTH 11 0
BBX 11 24 0 -10
BITMAP
001050
6FE7F8
2FDBD0
1FDB80
0BEF40
07EF00
07EE00
07FD00
03FD00
03FD00
02FE00
02EF00
02D780
01D3C0
005140
000000
00BF40
00BF40
00FF40
00FF40
005B40
000B40
000B00
000A00
ENDCHAR
STARTCHAR kgreenlandic
ENCODING 312
SWIDTH 636 0
DWIDTH 11 0
BBX 11 15 0 -1
BITMAP
001050
6FE7F8
2FDBD0
1FDB80
0BEF40
07EF00
07EE00
07FD00
03FD00
03FD00
02FE00
02EF00
02D780
01D3C0
005140
ENDCHAR
STARTCHAR Lacute
ENCODING 313
SWIDTH 416 0
DWIDTH 8 0
BBX 10 20 0 -1
BITMAP
000240
001F80
007FD0
00F900
000000
551000
7FE000
2FC000
2FC000
2FC000
2FC000
1F8000
0FC000
0FC000
0FC000
0FC000
0BD500
0BFF00
07FE00
019900
ENDCHAR
STARTCHAR lacute
ENCODING 314
SWIDTH 438 0
DWIDTH 8 0
BBX 10 20 0 -1
BITMAP
000280
000BC0
006FE0
00B900
000000
055400
7FF400
1FE000
1FD000
1FD000
0FD000
0FD000
0BD000
07D000
07D000
07D000
07E540
03FF00
03EF00
020A00
ENDCHAR
STARTCHAR Lcommaaccent
ENCODING 315
SWIDTH 416 0
DWIDTH 8 0
BBX 8 25 0 -11
BITMAP
5510
7FE0
2FC0
2FC0
2FC0
2FC0
1F80
0FC0
0FC0
0FC0
0FC0
0BD5
0BFF
07FE
0199
0000
0000
0FF4
0FF4
0FF4
0FF4
05B4
00B0
00B0
00A0
ENDCHAR
STARTCHAR lcommaaccent
ENCODING 316
SWIDTH 438 0
DWIDTH 8 0
BBX 9 25 0 -11
BITMAP
055400
7FF400
1FE000
1FD000
1FD000
0FD000
0FD000
0BD000
07D000
07D000
07D000
07E540
03FF00
03EF00
020A00
000000
000000
0BF800
0BF800
0BF800
0BF800
017800
007400
00B400
006000
ENDCHAR
STARTCHAR Lcaron
ENCODING 317
SWIDTH 714 0
DWIDTH 13 0
BBX 13 15 0 -1
BITMAP
15100000
7FE1FF00
2FC1FF00
2FC1FF40
1FC2FF00
1FC2FF00
1F801B00
0FC00F00
0FC00E00
0FC00900
0FC00000
0BD50000
0BFF0000
07FE0000
01990000
ENDCHAR
STARTCHAR lcaron
ENCODING 318
SWIDTH 782 0
DWIDTH 14 0
BBX 14 15 0 -1
BITMAP
05540000
7FF47FD0
1FE07FD0
1FD07FD0
1FD07FD0
0FD07FD0
0FD002D0
0BD002C0
07D003C0
07D00280
07D00000
07E54000
03FF0000
03EF0000
020A0000
ENDCHAR
STARTCHAR Ldotaccent
ENCODING 319
SWIDTH 567 0
DWIDTH 10 0
BBX 11 15 0 -1
BITMAP
551000
7FE000
2FC000
2FC5A8
2FCBFC
2FCBFC
1F87FC
0FC7FC
0FC6A8
0FC000
0FC000
0BD500
0BFF00
07FE00
019900
ENDCHAR
STARTCHAR ldot
ENCODING 320
SWIDTH 660 0
DWIDTH 12 0
BBX 13 15 0 -1
BITMAP
05540000
7FF40000
1FE00000
1FD00000
1FD15A00
0FD1FF40
0FD1FF40
0BD0FF40
07D0FF40
07D0EA40
07D00000
07E54000
03FF0000
03EF0000
020A0000
ENDCHAR
STARTCHAR Lslash
ENCODING 321
SWIDTH 428 0
DWIDTH 8 0
BBX 9 15 0 -1
BITMAP
151000
3FE000
2FC000
1FC000
1FC600
1FFE00
2FFF00
BFFE40
7FE000
3FC000
0BC000
0BD500
07FF00
07FE00
019900
ENDCHAR
STARTCHAR lslash
ENCODING 322
SWIDTH 457 0
DWIDTH 8 0
BBX 9 15 0 -1
BITMAP
015500
2FF800
1FF000
1FE000
0FE740
0FFF80
1FFFC0
7FFE40
7FE000
2FD000
07D000
03E540
03FF40
03EF00
020A00
ENDCHAR
STARTCHAR Nacute
ENCODING 323
SWIDTH 610 0
DWIDTH 11 0
BBX 12 22 0 -3
BITMAP
000034
0001F8
0007FD
000F90
000000
004400
7FCBE4
2FDBE0
1FE7D0
1FFBC0
1FFFC0
0FFFC0
0FFF80
0FFF80
0BFF80
07BF40
07AF40
079F40
078F40
078A00
014500
014000
ENDCHAR
STARTCHAR nacute
ENCODING 324
SWIDTH 664 0
DWIDTH 12 0
BBX 12 21 0 -2
BITMAP
00001C
0000BD
0002FE
000B90
000000
055100
7FE3FD
2FF2F8
2FF6F4
1FF7F0
1FFBF0
1FFFF0
1FFFE0
0FFFE0
0FFFD0
0BAFD0
0BAFC0
0B9FC0
078F40
064E40
000100
ENDCHAR
STARTCHAR Ncommaaccent
ENCODING 325
SWIDTH 610 0
DWIDTH 11 0
BBX 11 26 0 -12
BITMAP
004400
7FCBE4
2FDBE0
1FE7D0
1FFBC0
1FFFC0
0FFFC0
0FFF80
0FFF80
0BFF80
07BF40
07AF40
079F40
078F40
078A00
014500
014000
000000
00BF40
00BF40
00FF40
00FF40
005B40
000B40
000B00
000A00
ENDCHAR
STARTCHAR ncommaaccent
ENCODING 326
SWIDTH 664 0
DWIDTH 12 0
BBX 12 25 0 -11
BITMAP
055100
7FE3FD
2FF2F8
2FF6F4
1FF7F0
1FFBF0
1FFFF0
1FFFE0
0FFFE0
0FFFD0
0BAFD0
0BAFC0
0B9FC0
078F40
064E40
000100
000000
007F80
007FC0
007FC0
007FC0
0017C0
000380
000780
000640
ENDCHAR
STARTCHAR Ncaron
ENCODING 327
SWIDTH 610 0
DWIDTH 11 0
BBX 11 24 0 -3
BITMAP
0A01C0
0F43E0
0BCBC0
07EF80
02FF00
01FE00
004400
004400
7FCBE4
2FDBE0
1FE7D0
1FFBC0
1FFFC0
0FFFC0
0FFF80
0FFF80
0BFF80
07BF40
07AF40
079F40
078F40
078A00
014500
014000
ENDCHAR
STARTCHAR ncaron
ENCODING 328
SWIDTH 664 0
DWIDTH 12 0
BBX 12 23 0 -2
BITMAP
0740A0
07D1F4
03E3F0
01FBD0
00FF80
00BF40
001100
055100
7FE3FD
2FF2F8
2FF6F4
1FF7F0
1FFBF0
1FFFF0
1FFFE0
0FFFE0
0FFFD0
0BAFD0
0BAFC0
0B9FC0
078F40
064E40
000100
ENDCHAR
STARTCHAR Omacron
ENCODING 332
SWIDTH 504 0
DWIDTH 9 0
BBX 9 19 0 -2
BITMAP
155400
2FFD00
1AA900
004000
0BF900
2FFF40
7FFF40
7FFF80
7FFF40
7FBF80
3E2F80
3E2F80
2E2F40
2E2F00
1F3E00
1FBE00
0BFC00
023400
001000
ENDCHAR
STARTCHAR omacron
ENCODING 333
SWIDTH 545 0
DWIDTH 10 0
BBX 10 18 0 -1
BITMAP
055500
1FFE00
0AAA00
005000
0BFE00
2FFF80
7FFFD0
7FFFD0
7FFFD0
7FAFD0
3F1FD0
3F1FC0
2F1FC0
2F1F80
1F6F40
0FFF00
0BFE00
002900
ENDCHAR
STARTCHAR Obreve
ENCODING 334
SWIDTH 504 0
DWIDTH 9 0
BBX 9 22 0 -2
BITMAP
1A0500
1E0F40
0FAF00
0AFE00
006800
000000
004000
0BF900
2FFF40
7FFF40
7FFF80
7FFF40
7FBF80
3E2F80
3E2F80
2E2F40
2E2F00
1F3E00
1FBE00
0BFC00
023400
001000
ENDCHAR
STARTCHAR obreve
ENCODING 335
SWIDTH 545 0
DWIDTH 10 0
BBX 10 21 0 -1
BITMAP
1A0500
0F0B40
0FEF00
06FE00
006900
000000
005000
0BFE00
2FFF80
7FFFD0
7FFFD0
7FFFD0
7FAFD0
3F1FD0
3F1FC0
2F1FC0
2F1F80
1F6F40
0FFF00
0BFE00
002900
ENDCHAR
STARTCHAR Ohungarumlaut
ENCODING 336
SWIDTH 504 0
DWIDTH 9 0
BBX 9 23 0 -2
BITMAP
050500
0F4F80
1F9F80
2E2E00
383800
707000
000000
004000
0BF900
2FFF40
7FFF40
7FFF80
7FFF40
7FBF80
3E2F80
3E2F80
2E2F40
2E2F00
1F3E00
1FBE00
0BFC00
023400
001000
ENDCHAR
STARTCHAR ohungarumlaut
ENCODING 337
SWIDTH 545 0
DWIDTH 10 0
BBX 10 22 0 -1
BITMAP
010100
078790
0FCBD0
1F1F40
2D2D00
343400
000000
005000
0BFE00
2FFF80
7FFFD0
7FFFD0
7FFFD0
7FAFD0
3F1FD0
3F1FC0
2F1FC0
2F1F80
1F6F40
0FFF00
0BFE00
002900
ENDCHAR
STARTCHAR OE
ENCODING 338
SWIDTH 789 0
DWIDTH 14 0
BBX 14 17 0 -3
BITMAP
00415000
0BFFFFD0
2FFFFFC0
7FFFFF80
7FFFFF40
7FFFFF00
7FBFAB00
3E2F8000
3E2FFC00
3E2FFC00
2E2F9400
1F3F9400
1FBFFD00
0BFDFC00
02389400
01248400
00004400
ENDCHAR
STARTCHAR oe
ENCODING 339
SWIDTH 778 0
DWIDTH 14 0
BBX 14 15 0 -1
BITMAP
00500000
0BFFFF90
2FFFFF80
7FFFFF40
7FFFFF00
7FFFFF00
3FBFFE00
3F2F8100
2F1FD400
2F1FF800
1F2FF800
1F2F4000
0FFFA800
0BFFFC00
01389800
ENDCHAR
STARTCHAR Racute
ENCODING 340
SWIDTH 599 0
DWIDTH 11 0
BBX 12 20 0 -1
BITMAP
000070
0001F4
000BFD
001E90
000000
005000
6FFF80
2FFFF0
0FFFF4
0BFFF4
0BFFF4
0BE7F4
07D2F0
07E7F0
03FFE0
02FFC0
02E7C0
02E7D0
02E7D0
019290
ENDCHAR
STARTCHAR racute
ENCODING 341
SWIDTH 616 0
DWIDTH 11 0
BBX 12 21 0 -2
BITMAP
000034
0001F8
0007FD
000F90
000000
005000
6FFF90
2FFFF4
0FFFF8
0BFFF8
0BFFF4
0BE7F4
07E2F0
07F7F0
07FFE0
03FFC0
03EB80
03EB80
03E780
0297C0
000040
ENDCHAR
STARTCHAR Rcommaaccent
ENCODING 342
SWIDTH 599 0
DWIDTH 11 0
BBX 11 25 0 -11
BITMAP
005000
6FFF80
2FFFF0
0FFFF4
0BFFF4
0BFFF4
0BE7F4
07D2F0
07E7F0
03FFE0
02FFC0
02E7C0
02E7D0
02E7D0
019290
000000
000000
00FF00
01FF00
01FF00
01FF00
005F00
000F00
000E00
000900
ENDCHAR
STARTCHAR rcommaaccent
ENCODING 343
SWIDTH 616 0
DWIDTH 11 0
BBX 11 25 0 -11
BITMAP
005000
6FFF90
2FFFF4
0FFFF8
0BFFF8
0BFFF4
0BE7F4
07E2F0
07F7F0
07FFE0
03FFC0
03EB80
03EB80
03E780
0297C0
000040
000000
00FF40
00FF40
00FF40
00FF40
005B40
000B00
000F00
000900
ENDCHAR
STARTCHAR Rcaron
ENCODING 344
SWIDTH 599 0
DWIDTH 11 0
BBX 11 22 0 -1
BITMAP
0740D0
0BC2F0
07D7E0
02FFC0
01FF40
00FF00
000100
005000
6FFF80
2FFFF0
0FFFF4
0BFFF4
0BFFF4
0BE7F4
07D2F0
07E7F0
03FFE0
02FFC0
02E7C0
02E7D0
02E7D0
019290
ENDCHAR
STARTCHAR rcaron
ENCODING 345
SWIDTH 616 0
DWIDTH 11 0
BBX 11 23 0 -2
BITMAP
0B00D0
0B82F0
07D7D0
03FFC0
01FF40
00FF00
000400
005000
6FFF90
2FFFF4
0FFFF8
0BFFF8
0BFFF4
0BE7F4
07E2F0
07F7F0
07FFE0
03FFC0
03EB80
03EB80
03E780
0297C0
000040
ENDCHAR
STARTCHAR Sacute
ENCODING 346
SWIDTH 504 0
DWIDTH 9 0
BBX 11 20 0 -1
BITMAP
0001C0
0007D0
002FF4
007A40
000000
001000
07FD00
2FFF40
3FFF80
7FFF80
BFFF80
BFBF40
7F1A40
3FE400
1FFD00
01BF00
2A2F00
2FBE00
1FFC00
065400
ENDCHAR
STARTCHAR sacute
ENCODING 347
SWIDTH 481 0
DWIDTH 9 0
BBX 11 20 0 -1
BITMAP
0001C0
0007D0
002FF4
007940
000000
004000
0BF800
2FFF00
3FFF40
7FFF00
7FFF00
7FBF00
7F2F00
3FA100
2FF800
06FC00
153D00
2F7C00
1FF800
0BA000
ENDCHAR
STARTCHAR Scircumflex
ENCODING 348
SWIDTH 504 0
DWIDTH 9 0
BBX 9 22 0 -1
BITMAP
02A800
03FD00
0BFE00
0F6F40
1E0B80
280280
000000
001000
07FD00
2FFF40
3FFF80
7FFF80
BFFF80
BFBF40
7F1A40
3FE400
1FFD00
01BF00
2A2F00
2FBE00
1FFC00
065400
ENDCHAR
STARTCHAR scircumflex
ENCODING 349
SWIDTH 481 0
DWIDTH 9 0
BBX 9 22 0 -1
BITMAP
02A400
07FC00
0FFD00
1F6F00
2D0F40
340780
000000
004000
0BF800
2FFF00
3FFF40
7FFF00
7FFF00
7FBF00
7F2F00
3FA100
2FF800
06FC00
153D00
2F7C00
1FF800
0BA000
ENDCHAR
STARTCHAR Scedilla
ENCODING 350
SWIDTH 504 0
DWIDTH 9 0
BBX 9 20 0 -6
BITMAP
001000
07FD00
2FFF40
3FFF80
7FFF80
BFFF80
BFBF40
7F1A40
3FE400
1FFD00
01BF00
2A2F00
2FBE00
1FFC00
06F400
00E000
00E800
006C00
006C00
00FC00
ENDCHAR
STARTCHAR scedilla
ENCODING 351
SWIDTH 481 0
DWIDTH 9 0
BBX 9 20 0 -6
BITMAP
004000
0BF800
2FFF00
3FFF40
7FFF00
7FFF00
7FBF00
7F2F00
3FA100
2FF800
06FC00
153D00
2F7C00
1FF800
0BE000
028000
02E400
017400
007400
02F400
ENDCHAR
STARTCHAR Scaron
ENCODING 352
SWIDTH 503 0
DWIDTH 9 0
BBX 9 24 0 -1
BITMAP
140100
7D0B40
2E1F40
1F7E00
0FFD00
0BF800
02A400
000000
000000
001000
07FD00
2FFF40
3FFF80
7FFF80
BFFF80
BFBF40
7F1A40
3FE400
1FFD00
01BF00
2A2F00
2FBE00
1FFC00
065400
ENDCHAR
STARTCHAR scaron
ENCODING 353
SWIDTH 479 0
DWIDTH 9 0
BBX 9 24 0 -1
BITMAP
100500
780F40
3D2F00
2F7E00
1FFC00
0BF800
06A000
000000
000000
004000
0BF800
2FFF00
7FFF40
7FFF00
7FFF00
7FBF00
7F2E00
3FA100
2FF800
06FC00
153D00
2F7C00
1FF800
0BA000
ENDCHAR
STARTCHAR Tcommaaccent
ENCODING 354
SWIDTH 622 0
DWIDTH 11 0
BBX 10 21 1 -7
BITMAP
014000
BFFF90
BFFFC0
7FFF80
7FFF80
3FFF80
3FFF80
12F400
01F400
02F400
02F400
01F000
01F000
01F400
01F000
01F000
00D000
01E800
006C00
006C00
01F800
ENDCHAR
STARTCHAR tcommaaccent
ENCODING 355
SWIDTH 683 0
DWIDTH 12 0
BBX 12 21 0 -7
BITMAP
015540
6FFFFD
3FFFFC
1FFFF8
0FFFF8
0FFFF4
0BFFB4
053F00
003F00
003F00
003F00
002F00
002F00
002F00
002F00
001F00
001D00
001E40
000780
000780
001F80
ENDCHAR
STARTCHAR Tcaron
ENCODING 356
SWIDTH 622 0
DWIDTH 11 0
BBX 10 23 1 -2
BITMAP
280700
3D0F80
2F2F00
1FBE00
0BFC00
07F800
011000
014000
BFFF90
BFFFC0
7FFF80
7FFF80
3FFF80
3FFF80
12F400
01F400
02F400
02F400
01F000
01F000
01F400
01F000
015000
ENDCHAR
STARTCHAR tcaron
ENCODING 357
SWIDTH 622 0
DWIDTH 11 0
BBX 10 23 1 -2
BITMAP
1C0340
2E0BC0
1F5F40
0BFF00
07FD00
03FC00
001000
014000
BFFF90
BFFFC0
7FFF80
7FFF80
3FFF80
3FFF80
12F400
01F400
02F400
02F400
01F000
01F000
01F400
01F000
015000
ENDCHAR
STARTCHAR Utilde
ENCODING 360
SWIDTH 637 0
DWIDTH 11 0
BBX 11 20 0 -1
BITMAP
000500
1F6F80
1FFFD0
0BE780
014000
054000
7FC7E4
2FC7F4
1FC7F0
1FC7E0
1FC7E0
0FCBD0
0FCBC0
0FCBC0
0FCBC0
0BCB80
0BDF80
07FF40
02DA00
010400
ENDCHAR
STARTCHAR utilde
ENCODING 361
SWIDTH 708 0
DWIDTH 13 0
BBX 13 19 0 0
BITMAP
01014000
0B9BD000
0BFFF000
02FAE000
00400000
01500000
6FE1E900
2FE1FF40
1FE1FE00
0FF1FD00
0FF1FC00
0BF1F800
0BE2F400
07E2F400
07F2F400
03F3F000
02F7F000
02FFE000
01A69000
ENDCHAR
STARTCHAR Umacron
ENCODING 362
SWIDTH 637 0
DWIDTH 11 0
BBX 11 18 0 -1
BITMAP
015540
07FF80
02AA80
054000
7FC7E4
2FC7F4
1FC7F0
1FC7E0
1FC7E0
0FCBD0
0FCBC0
0FCBC0
0FCBC0
0BCB80
0BDF80
07FF40
02DA00
010400
ENDCHAR
STARTCHAR umacron
ENCODING 363
SWIDTH 708 0
DWIDTH 13 0
BBX 13 17 0 0
BITMAP
01554000
02FFD000
01AA9000
01500000
6FE1E900
2FE1FF40
1FE1FE00
0FF1FD00
0FF1FC00
0BF1F800
0BE2F400
07E2F400
07F2F400
03F3F000
02F7F000
02FFE000
01A69000
ENDCHAR
STARTCHAR Ubreve
ENCODING 364
SWIDTH 637 0
DWIDTH 11 0
BBX 11 21 0 -1
BITMAP
028150
03D2E0
02FBD0
01BFC0
001640
000000
054000
7FC7E4
2FC7F4
1FC7F0
1FC7E0
1FC7E0
0FCBD0
0FCBC0
0FCBC0
0FCBC0
0BCB80
0BDF80
07FF40
02DA00
010400
ENDCHAR
STARTCHAR ubreve
ENCODING 365
SWIDTH 708 0
DWIDTH 13 0
BBX 13 20 0 0
BITMAP
01A05000
00F0F400
00FAF000
006FE000
00069000
00000000
01500000
6FE1E900
2FE1FF40
1FE1FE00
0FF1FD00
0FF1FC00
0BF1F800
0BE2F400
07E2F400
07F2F400
03F3F000
02F7F000
02FFE000
01A69000
ENDCHAR
STARTCHAR Uring
ENCODING 366
SWIDTH 637 0
DWIDTH 11 0
BBX 11 21 0 -1
BITMAP
001400
00FE00
01D740
01C340
00EE00
006800
054000
7FC7E4
2FC7F4
1FC7F0
1FC7E0
1FC7E0
0FCBD0
0FCBC0
0FCBC0
0FCBC0
0BCB80
0BDF80
07FF40
02DA00
010400
ENDCHAR
STARTCHAR uring
ENCODING 367
SWIDTH 708 0
DWIDTH 13 0
BBX 13 20 0 0
BITMAP
00050000
003F8000
00B6D000
0070C000
007B8000
001A0000
01500000
6FE1E900
2FE1FF40
1FE1FE00
0FF1FD00
0FF1FC00
0BF1F800
0BE2F400
07E2F400
07F2F400
03F3F000
02F7F000
02FFE000
01A69000
ENDCHAR
STARTCHAR Uhungarumlaut
ENCODING 368
SWIDTH 637 0
DWIDTH 11 0
BBX 11 22 0 -1
BITMAP
004040
01E1E4
03F2F4
07D7D0
0B4B40
0D0D00
000000
054000
7FC7E4
2FC7F4
1FC7F0
1FC7E0
1FC7E0
0FCBD0
0FCBC0
0FCBC0
0FCBC0
0BCB80
0BDF80
07FF40
02DA00
010400
ENDCHAR
STARTCHAR uhungarumlaut
ENCODING 369
SWIDTH 708 0
DWIDTH 13 0
BBX 13 21 0 0
BITMAP
00505000
00B4B900
01F9F800
02E2E000
0383C000
07070000
00000000
01500000
6FE1E900
2FE1FF40
1FE1FE00
0FF1FD00
0FF1FC00
0BF1F800
0BE2F400
07E2F400
07F2F400
03F3F000
02F7F000
02FFE000
01A69000
ENDCHAR
STARTCHAR Uogonek
ENCODING 370
SWIDTH 637 0
DWIDTH 11 0
BBX 11 19 0 -5
BITMAP
054000
7FC7E4
2FC7F4
1FC7F0
1FC7E0
1FC7E0
0FCBD0
0FCBC0
0FCBC0
0FCBC0
0BCB80
0BDF80
07FF40
02FF00
012D00
002C00
002E40
001FF0
000BE0
ENDCHAR
STARTCHAR uogonek
ENCODING 371
SWIDTH 662 0
DWIDTH 12 0
BBX 13 19 0 -5
BITMAP
01500000
7FE1E900
2FE2FF40
1FE2FE00
0FE1FD00
0FF1F800
0BF2F800
0BE2F400
07E2F400
07E2F400
07F3F000
03F7F000
02FFE000
01BF9000
00380000
00380000
003D0000
002FE000
000BD000
ENDCHAR
STARTCHAR Wcircumflex
ENCODING 372
SWIDTH 777 0
DWIDTH 14 0
BBX 14 21 0 0
BITMAP
002A4000
007FC000
00BFE000
01F6F000
02D0B800
03803800
00000000
00060400
1BCB1F90
7FCF6F80
0FDF7F00
07EFFD00
07FFFC00
03FFF800
01FFF400
00FFF400
00FFF000
00BAF000
007AE000
003AD000
0026C000
ENDCHAR
STARTCHAR wcircumflex
ENCODING 373
SWIDTH 704 0
DWIDTH 13 0
BBX 13 21 0 0
BITMAP
006A0000
00BF8000
01FFC000
02E7E000
03C1F000
07007400
00000000
00040000
6F5D7A40
2F9E7E00
0FAE7D00
0BEFB800
07FFF400
03FFF000
02FFF000
01FFE000
00FFE000
00FBE000
00BBE000
0076D000
0026D000
ENDCHAR
STARTCHAR Ycircumflex
ENCODING 374
SWIDTH 688 0
DWIDTH 12 0
BBX 12 22 0 -1
BITMAP
006A00
00FF40
01FFC0
03E7D0
0782F0
0B00B0
000000
014040
7FD1F9
0BF2FE
02FBF4
00BFE0
007FC0
003FC0
002FC0
001F80
000F80
000F80
000B80
000B80
000B40
000500
ENDCHAR
STARTCHAR ycircumflex
ENCODING 375
SWIDTH 604 0
DWIDTH 11 0
BBX 9 22 1 -1
BITMAP
06A000
0FF800
1FFC00
2E7E00
7C1F00
B00B40
000000
040000
FE1E80
2F2F80
0FBE00
0BFC00
07F800
03F800
02F400
02F400
01F400
01F000
01F400
01F000
01F000
00A000
ENDCHAR
STARTCHAR Ydieresis
ENCODING 376
SWIDTH 688 0
DWIDTH 12 0
BBX 12 20 0 -1
BITMAP
0651A8
0FE3F8
0FE3F8
0FE3F8
069154
014040
7FD1F9
0BF2FE
02FBF4
00BFE0
007FC0
003FC0
002FC0
001F80
000F80
000F80
000B80
000B80
000B40
000500
ENDCHAR
STARTCHAR Zacute
ENCODING 377
SWIDTH 695 0
DWIDTH 13 0
BBX 13 20 0 -1
BITMAP
00000900
00007E00
0001FF40
0003E400
00000000
01550000
6FFFF900
3FFFFE00
2FFFFD00
0FFFF800
0BFFF400
0BAFE000
052F8000
007E0000
00BC0000
00B40000
01F90000
02FF4000
03FF0000
00050000
ENDCHAR
STARTCHAR zacute
ENCODING 378
SWIDTH 622 0
DWIDTH 11 0
BBX 12 20 0 -1
BITMAP
000024
0001F8
0007FD
000F90
000000
015500
7FFFF4
3FFFF4
1FFFE0
0FFFD0
0BFFD0
0BAF80
053E00
007D00
00B800
00B400
00F500
02FF40
02FF00
015600
ENDCHAR
STARTCHAR Zdotaccent
ENCODING 379
SWIDTH 695 0
DWIDTH 13 0
BBX 12 21 0 -1
BITMAP
005A40
00FFC0
00BF80
00BFC0
00BFC0
006A80
015500
6FFFF9
3FFFFE
2FFFFD
0FFFF8
0BFFF4
0BAFE0
052F80
007E00
00BC00
00B400
01F900
02FF40
03FF00
000500
ENDCHAR
STARTCHAR zdotaccent
ENCODING 380
SWIDTH 622 0
DWIDTH 11 0
BBX 11 21 0 -1
BITMAP
016900
03FE00
02FE00
02FF00
02FE00
01AA00
015500
7FFFF4
3FFFF4
1FFFE0
0FFFD0
0BFFD0
0BAF80
053E00
007D00
00B800
00B400
00F500
02FF40
02FF00
015600
ENDCHAR
STARTCHAR Zcaron
ENCODING 381
SWIDTH 693 0
DWIDTH 12 0
BBX 12 24 0 -1
BITMAP
014050
07C0F4
02E2F0
01F7E0
00FFC0
00BF80
006A00
000000
000000
015500
6FFFF9
3FFFFE
2FFFFD
0FFFF8
0BFFF4
0BAFE0
052F80
007E00
00BC00
00B400
01F900
02FF40
03FF00
000500
ENDCHAR
STARTCHAR zcaron
ENCODING 382
SWIDTH 621 0
DWIDTH 11 0
BBX 11 24 0 -1
BITMAP
050180
0F43D0
0B8BD0
07EF80
03FF40
01FE00
009800
000000
000000
015500
7FFFF4
3FFFF4
1FFFE0
0FFFD0
0BFFD0
0BAF80
053E00
007D00
00B800
00B400
00F500
02FF40
02FF00
015600
ENDCHAR
STARTCHAR DZ
ENCODING 497
SWIDTH 194 0
DWIDTH 4 0
BBX 1 1 0 0
BITMAP
00
ENDCHAR
STARTCHAR Dz
ENCODING 498
SWIDTH 194 0
DWIDTH 4 0
BBX 1 1 0 0
BITMAP
00
ENDCHAR
STARTCHAR dotlessj
ENCODING 567
SWIDTH 458 0
DWIDTH 8 0
BBX 9 15 -1 -1
BITMAP
005000
02FF40
00FF40
00FF00
00BE00
00BE00
00BE00
00BE00
007D00
147D00
7D7D00
3EBC00
2FFC00
1FF800
005400
ENDCHAR
STARTCHAR circumflex
ENCODING 710
SWIDTH 528 0
DWIDTH 10 0
BBX 8 6 1 13
BITMAP
0A90
1FF0
3FF4
7DBC
B43D
D01E
ENDCHAR
STARTCHAR caron
ENCODING 711
SWIDTH 486 0
DWIDTH 9 0
BBX 9 7 0 12
BITMAP
740A00
7C1F40
3E3E00
2FBD00
0FF800
0BF400
011000
ENDCHAR
STARTCHAR breve
ENCODING 728
SWIDTH 464 0
DWIDTH 8 0
BBX 8 5 0 -1
BITMAP
6814
3C2D
2FBD
1BF8
01A4
ENDCHAR
STARTCHAR dotaccent
ENCODING 729
SWIDTH 388 0
DWIDTH 7 0
BBX 5 6 1 4
BITMAP
5A40
FF80
BF80
BFC0
BF80
6A80
ENDCHAR
STARTCHAR ring
ENCODING 730
SWIDTH 370 0
DWIDTH 7 0
BBX 5 6 1 5
BITMAP
0400
BF40
E780
D280
BB00
1900
ENDCHAR
STARTCHAR ogonek
ENCODING 731
SWIDTH 360 0
DWIDTH 7 0
BBX 5 6 1 0
BITMAP
B000
F000
F000
F500
BF80
2F80
ENDCHAR
STARTCHAR tilde
ENCODING 732
SWIDTH 535 0
DWIDTH 10 0
BBX 8 5 1 -2
BITMAP
1010
B5FD
FFFE
7FAD
0400
ENDCHAR
STARTCHAR hungarumlaut
ENCODING 733
SWIDTH 554 0
DWIDTH 10 0
BBX 9 6 1 13
BITMAP
041400
2E2E40
3E3F00
7C7C00
F0B400
D0D000
ENDCHAR
STARTCHAR dotaccentcmb
ENCODING 775
SWIDTH 396 0
DWIDTH 7 0
BBX 5 6 1 7
BITMAP
0540
FFC0
BF80
BFC0
BFC0
7F80
ENDCHAR
STARTCHAR uni030F
ENCODING 783
SWIDTH 549 0
DWIDTH 10 0
BBX 9 6 0 13
BITMAP
040400
6D2D00
3F3F00
1F4F40
078780
01C1C0
ENDCHAR
STARTCHAR uni0311
ENCODING 785
SWIDTH 490 0
DWIDTH 9 0
BBX 7 5 1 6
BITMAP
2FD0
7FF0
B9B8
F478
5000
ENDCHAR
STARTCHAR uni0326
ENCODING 806
SWIDTH 360 0
DWIDTH 7 0
BBX 5 8 1 -2
BITMAP
BF40
BF40
BF80
FF40
5B40
0B40
0B00
0600
ENDCHAR
STARTCHAR endash
ENCODING 8211
SWIDTH 478 0
DWIDTH 9 0
BBX 7 4 1 5
BITMAP
AAA4
FFF4
FFF4
6AA0
ENDCHAR
STARTCHAR emdash
ENCODING 8212
SWIDTH 567 0
DWIDTH 10 0
BBX 8 4 1 5
BITMAP
AAAA
FFFF
FFFE
69AA
ENDCHAR
STARTCHAR quoteleft
ENCODING 8216
SWIDTH 373 0
DWIDTH 7 0
BBX 5 10 1 4
BITMAP
1000
B400
B400
B000
FA80
FF80
FF80
FF80
FF80
5640
ENDCHAR
STARTCHAR quoteright
ENCODING 8217
SWIDTH 369 0
DWIDTH 7 0
BBX 5 9 1 4
BITMAP
FF40
FF80
FF80
FF80
FF80
0B40
0B40
0B00
0600
ENDCHAR
STARTCHAR quotesinglbase
ENCODING 8218
SWIDTH 369 0
DWIDTH 7 0
BBX 5 9 1 4
BITMAP
FF40
FF80
FF80
FF80
FF80
0B40
0B40
0B00
0600
ENDCHAR
STARTCHAR quotedblleft
ENCODING 8220
SWIDTH 687 0
DWIDTH 12 0
BBX 11 10 1 4
BITMAP
100100
B40F00
B40F00
B00E00
FA9FA4
FF9FF4
FF9FF4
FF9FF4
FF9FF4
564560
ENDCHAR
STARTCHAR quotedblright
ENCODING 8221
SWIDTH 677 0
DWIDTH 12 0
BBX 11 10 0 4
BITMAP
140100
3FD7FC
3FD7FC
3FD7FC
7FD7FC
7FD7FC
02D03C
02C03C
02C038
014024
ENDCHAR
STARTCHAR quotedblbase
ENCODING 8222
SWIDTH 697 0
DWIDTH 13 0
BBX 11 10 1 -6
BITMAP
500500
FF4FF8
FF8FF8
FF8FF8
FF8FF8
FF8FF8
074078
0B4074
0B00B4
050050
ENDCHAR
STARTCHAR ellipsis
ENCODING 8230
SWIDTH 1462 0
DWIDTH 26 0
BBX 25 6 1 1
BITMAP
05000050000500
FF400FF400FF40
BF400BF400FF40
BF800BF400FF40
BF400BF400BF40
BF400BF400BF40
ENDCHAR
STARTCHAR guilsinglleft
ENCODING 8249
SWIDTH 459 0
DWIDTH 8 0
BBX 8 10 0 1
BITMAP
07FD
07F8
0FF0
2FD0
7F80
3FC0
1FD0
0BF4
02FD
0069
ENDCHAR
STARTCHAR guilsinglright
ENCODING 8250
SWIDTH 432 0
DWIDTH 8 0
BBX 7 10 0 1
BITMAP
7FC0
2FD0
0BF0
07F8
01FC
03FC
07F4
1FD0
7F80
2900
ENDCHAR
STARTCHAR fraction
ENCODING 8260
SWIDTH 371 0
DWIDTH 7 0
BBX 7 15 0 -1
BITMAP
0540
BFF4
2FF0
1FE0
0FD0
1FD0
1FC0
0FC0
0FC0
0FC0
0B80
0B80
0B80
0780
0040
ENDCHAR
STARTCHAR Euro
ENCODING 8364
SWIDTH 587 0
DWIDTH 11 0
BBX 10 18 0 -4
BITMAP
001400
02FF40
0BFFD0
0FFFE0
0FFFE0
0FFFE0
0FEBE0
0BD7E0
BFE150
1BD000
6FF640
07DBC0
03EF80
02FF40
009900
005400
005000
001000
ENDCHAR
STARTCHAR trademark
ENCODING 8482
SWIDTH 785 0
DWIDTH 14 0
BBX 14 10 0 4
BITMAP
15415640
BFF3EBD0
7FE2FFC0
3FE1FF80
1B91FF80
0741FF80
0740EB80
0740EB80
07408540
05000000
ENDCHAR
STARTCHAR minus
ENCODING 8722
SWIDTH 478 0
DWIDTH 9 0
BBX 7 4 1 5
BITMAP
AAA4
FFF4
FFF0
6AA0
ENDCHAR
STARTCHAR commaaccent
ENCODING 63171
SWIDTH 360 0
DWIDTH 7 0
BBX 5 9 1 -3
BITMAP
FF40
FF80
FF80
FF80
FF80
0B40
0B40
0B40
0600
ENDCHAR
STARTCHAR .notdef
ENCODING -1
SWIDTH 365 0
DWIDTH 7 0
BBX 6 12 0 0
BITMAP
6A90
5050
5050
5050
5050
5050
5050
5050
5050
5050
5050
6A90
ENDCHAR
STARTCHAR .null
ENCODING -1
SWIDTH 0 0
DWIDTH 0 0
BBX 1 1 0 0
BITMAP
00
ENDCHAR
STARTCHAR nonmarkingreturn
ENCODING -1
SWIDTH 333 0
DWIDTH 6 0
BBX 1 1 0 0
BITMAP
00
ENDCHAR
ENDFONT
